<svg xmlns="http://www.w3.org/2000/svg" version="1.1" xmlns:xlink="http://www.w3.org/1999/xlink" width="512" height="512" x="0" y="0" viewBox="0 0 60 60" style="enable-background:new 0 0 512 512" xml:space="preserve" class=""><g><g fill="#4450bc"><path d="M57.757 11.47a.5.5 0 0 1-.445-.729l.434-.843-2.152 1.243a.5.5 0 0 1-.6-.789l.833-.821-.55.318a.5.5 0 0 1-.588-.8l.624-.574-.043.024a.5.5 0 0 1-.615-.774L56.29 5.98l-1.033.6a.5.5 0 0 1-.627-.761l1.69-1.946L53.664 5.4a.5.5 0 0 1-.6-.789l1.17-1.151L50.87 5.4a.5.5 0 0 1-.642-.742l1.494-1.9-2.442 1.413a.5.5 0 0 1-.706-.637l.6-1.343a.5.5 0 0 1-.343-.923L49.994.6a.5.5 0 0 1 .706.636l-.581 1.3L53.471.6a.5.5 0 0 1 .642.742l-1.494 1.9 4.507-2.6a.5.5 0 0 1 .6.789l-1.17 1.148 1.85-1.068a.5.5 0 0 1 .627.76l-1.69 1.947 1.377-.795a.5.5 0 0 1 .614.774L57.7 5.941l1.022-.589a.5.5 0 0 1 .589.8l-.622.573.033-.019a.5.5 0 0 1 .6.789l-.834.82.234-.133a.5.5 0 0 1 .694.661l-.492.957a.5.5 0 0 1 .245.932l-1.16.67a.5.5 0 0 1-.252.068zM5.476 5.5a.5.5 0 0 1-.25-.933L10.7 1.4a.5.5 0 0 1 .633.754l-.815.972.2-.115a.5.5 0 0 1 .5.865L8.563 5.413a.5.5 0 0 1-.632-.754l.816-.973L5.726 5.43a.5.5 0 0 1-.25.07z" fill="#4450bc" opacity="1" data-original="#4450bc" class=""></path><path d="M3.757 11.47a.5.5 0 0 1-.453-.712L3.846 9.6l-2.392 1.38a.5.5 0 0 1-.615-.78l1.473-1.571-1.032.6a.5.5 0 0 1-.551-.831l3.3-2.5L1.28 7.483a.5.5 0 0 1-.569-.817L3.441 4.4 1.28 5.643a.5.5 0 0 1-.6-.792L2.082 3.5l-.8.463a.5.5 0 0 1-.644-.739l.578-.745a.5.5 0 0 1-.149-.922L2.722.6a.5.5 0 0 1 .644.739l-.373.479L5.109.6a.5.5 0 0 1 .6.792l-1.4 1.35L8.02.6a.5.5 0 0 1 .569.817l-2.731 2.27 4.668-2.7a.5.5 0 0 1 .552.831l-5.749 4.35a.359.359 0 0 1 .032.036.5.5 0 0 1-.026.653L3.86 8.435l.86-.5a.5.5 0 0 1 .7.645L4.854 9.8a.5.5 0 0 1 .313.928l-1.16.67a.5.5 0 0 1-.25.072zM3.675 59.47a.5.5 0 0 1-.35-.858l1.191-1.163-2.549 1.471a.5.5 0 0 1-.614-.775l.961-1.025-1.014.585a.5.5 0 0 1-.629-.76l2-2.317-1.395.8a.5.5 0 0 1-.61-.78l1.5-1.559-.89.512a.5.5 0 0 1-.61-.779l1.222-1.266-.612.352a.5.5 0 0 1-.7-.654l.531-1.054a.548.548 0 0 1-.458-.25.5.5 0 0 1 .184-.683L2 48.6a.5.5 0 0 1 .7.655l-.479.968 2.252-1.3a.5.5 0 0 1 .61.779l-1.223 1.27.873-.5a.5.5 0 0 1 .61.779L3.837 52.8l.9-.519a.5.5 0 0 1 .629.76l-2 2.318 1.387-.8a.5.5 0 0 1 .614.775L4.4 56.36l3.056-1.76a.5.5 0 0 1 .6.79l-1.189 1.16 3.249-1.876a.5.5 0 0 1 .642.743l-1.434 1.809 1.4-.806a.5.5 0 0 1 .66.719l-.344.493a.493.493 0 0 1 .353.243.5.5 0 0 1-.183.683l-1.468.842a.5.5 0 0 1-.66-.718l.191-.275-1.72.993a.5.5 0 0 1-.642-.743l1.434-1.808-4.42 2.551a.49.49 0 0 1-.25.07zM52.537 59.47a.5.5 0 0 1-.315-.889l1.521-1.233-3.549 2.052a.493.493 0 0 1-.624-.1.5.5 0 0 1-.026-.631l1.5-2.007-1.764 1.012a.5.5 0 0 1-.688-.674l.441-.8a.5.5 0 0 1-.2-.929L50 54.6a.5.5 0 0 1 .689.674l-.355.643 2.31-1.333a.5.5 0 0 1 .651.732l-1.5 2.005 6.925-4a.5.5 0 0 1 .565.822l-1.524 1.236.959-.554a.5.5 0 0 1 .607.782l-1.083 1.106.476-.274a.5.5 0 0 1 .5.865l-3.64 2.1a.5.5 0 0 1-.607-.782l1.081-1.1-3.267 1.878a.493.493 0 0 1-.25.07z" fill="#4450bc" opacity="1" data-original="#4450bc" class=""></path><path d="M55.03 54.94a.5.5 0 0 1-.335-.871l.469-.423a.5.5 0 0 1-.522-.8l1.6-1.977-.962.555a.5.5 0 0 1-.676-.7l.342-.552a.5.5 0 0 1-.113-.913l1.161-.67a.5.5 0 0 1 .676.7l-.173.278 1.58-.911a.5.5 0 0 1 .639.747l-1.6 1.977 1.6-.926a.5.5 0 0 1 .585.8l-.469.422a.5.5 0 0 1 .566.232.5.5 0 0 1-.182.683l-3.94 2.274a.489.489 0 0 1-.246.075z" fill="#4450bc" opacity="1" data-original="#4450bc" class=""></path></g></g></svg>