<svg xmlns="http://www.w3.org/2000/svg" version="1.1" xmlns:xlink="http://www.w3.org/1999/xlink" width="512" height="512" x="0" y="0" viewBox="0 0 512.003 512.003" style="enable-background:new 0 0 512 512" xml:space="preserve" class=""><g><path d="m247.913 158.077-.099-.065a56.9 56.9 0 0 0-3.329.099c-3.461.132-6.855.626-10.284 1.088l-.923.132-1.021.231v.099c-10.547 1.285-20.995 3.329-29.828 5.142-2.801.593-5.603 1.121-8.406 1.648-2.834.528-5.669 1.055-8.471 1.616a242.178 242.178 0 0 0-5.438 2.044l-3.296 1.516-1.285.528c-.956.396-1.912.791-2.801 1.285a150.44 150.44 0 0 1-4.021 2.142l-1.186.593c-.725.396-1.45.759-2.109 1.187l-1.845 1.121-1.845 1.153-1.055.627a33.98 33.98 0 0 0-2.01 1.285c-2.077 1.484-4.186 3-6.262 4.549-4.285 3.526-9.228 7.679-13.744 12.196l-1.088 1.088c-2.011 1.977-3.989 3.922-5.867 5.999l-.692.791c-3 3.394-5.966 6.757-8.8 10.284 0 .033-.626.791-.626.791-6.691 9.163-11.832 19.315-16.381 28.906-1.549 3.692-3.098 7.416-4.45 11.207l-.528 1.384c-.528 1.45-1.088 2.901-1.484 4.384l-1.121 3.857-1.088 3.857c-.461 1.582-.791 3.164-1.121 4.746l-.428 1.945a162.703 162.703 0 0 0-1.088 5.471 436.97 436.97 0 0 0-1.977 13.184l.396-1.681-.791 4.845c-.593 4.845-1.187 9.691-1.747 14.536-.692 6.362-1.153 12.888-1.45 19.908-.264 6.427-.231 12.196.165 17.666.461 5.867 1.187 11.733 1.945 17.601 1.285 7.186 2.637 14.206 4.845 20.93a279.525 279.525 0 0 0 3.889 11.14c.824 2.208 1.746 4.417 2.702 6.658l.692 1.648c2.769 6.163 5.373 11.932 8.603 17.238l.759 1.318c1.352 2.208 2.702 4.45 4.153 6.625 1.747 2.669 3.625 5.241 5.537 7.844l4.054 4.911c.956 1.153 1.977 2.241 3.033 3.329l1.549 1.648c.528.56 1.121 1.088 1.681 1.616l.824.791.824.791a35.261 35.261 0 0 0 1.616 1.549 320.874 320.874 0 0 1 4.845 4.153l2.834 2.109 1.549 1.187a64.093 64.093 0 0 0 3.098 2.077l1.977 1.285c2.669 1.78 5.471 3.394 8.274 5.01l1.746.989c3.625 2.142 6.691 3.922 9.823 5.537l1.977 1.055c1.088.593 2.142 1.187 3.262 1.681a240.84 240.84 0 0 1 5.142 2.208l6.031 2.176c1.318.461 2.637.824 3.955 1.22l2.241.626c3.692 1.121 7.482 2.077 11.24 3.033 4.054 1.055 7.647 1.945 11.272 2.736 4.383 1.021 8.8 1.845 13.217 2.637 2.011.264 4.35.593 6.691.791 3.098.231 6.197.461 9.295.593 5.899.296 11.8.428 17.732.528h2.241c10.02 0 19.875-.923 31.575-2.274 3-.495 5.999-.989 8.966-1.681 3.362-.757 6.658-1.648 9.954-2.57 2.769-.791 5.471-1.78 8.174-2.736 3.329-1.253 5.966-2.274 8.57-3.362 3.131-1.45 6.757-3.23 9.92-5.471l1.912-1.318 1.879-1.352a95.45 95.45 0 0 0 4.911-3.658l1.187-1.021 2.801-2.34c.725-.626 1.417-1.352 2.142-2.044l1.318-1.285c2.208-2.142 4.252-4.482 6.295-6.823 4.285-4.911 8.536-9.888 12.624-14.997 2.34-3.132 4.746-6.362 6.757-9.756l.956-1.616c1.945-3.296 3.889-6.658 5.57-10.086a453.93 453.93 0 0 0 10.745-23.137c4.35-10.58 9.262-23.171 12.756-35.992 3.23-11.733 5.142-23.929 6.987-35.761l.329-2.011c.461-3.922.889-7.976 1.121-11.997.264-5.174.396-10.383.495-15.557.099-4.713.067-9.427-.065-14.106-.132-4.35-.461-8.932-1.055-14.37-1.186-8.075-2.438-15.393-3.823-22.412-1.318-6.658-3.394-13.645-6.427-21.391a128.56 128.56 0 0 0-11.635-19.743c-1.845-2.241-4.35-5.142-7.218-7.746-2.472-2.274-5.01-4.417-7.614-6.526-6.394-4.515-13.712-8.635-22.313-12.591-6.889-2.834-13.02-5.109-18.722-6.955-3.889-1.285-7.811-2.373-11.733-3.428-2.472-.692-4.945-1.352-7.416-2.077-3.989-1.153-7.153-2.044-10.383-2.868-2.769-.725-5.603-1.22-8.438-1.713l-1.021-.197c-2.34-.396-4.681-.824-7.021-1.285-3.922-.725-7.844-1.484-11.832-2.077l-5.603-.56c-2.438-.231-4.878-.461-7.318-.757-2.868-.329-5.735-.626-8.635-.791-1.186.759-1.78.923-2.472.923-.363 0-.758-.065-1.186-.132l-1.616-.231-1.616-.231 1.055.165c-3.164-.396-6.362-.66-9.559-.791l-.002.083zm5.01 111.735c1.417-2.769 2.966-5.505 4.515-8.24l.824-1.484.725-1.252.725-1.252c1.549-2.736 3.132-5.471 4.911-8.075 2.67-4.021 5.373-7.218 8.24-9.789 3.461-3.132 7.614-6.625 12.393-9.13 5.339-2.769 10.712-4.318 16.381-4.779 1.384-.132 2.769-.231 4.186-.231 1.252 0 2.505.065 3.79.231l1.582.197c1.747.231 3.494.461 5.207.956 4.945 1.352 9.13 3.428 12.756 6.362 3.857 3.132 7.186 6.955 9.591 11.075 2.274 3.889 5.043 9.096 6.493 14.798 1.22 4.746 1.879 9.855 1.912 15.228v1.055l-.033 1.021c-.052 3.676-.27 7.456-.751 11.258-.11 1.049-.231 2.101-.367 3.155l.063-.439-.09.663c.055.039.025.461.025.524l-.791 5.999c-.593 4.417-1.417 8.8-2.274 13.152l-.231 1.088c-.363 1.845-.692 3.658-1.187 5.471l-.56 2.176c-.329 1.417-.66 2.834-1.121 4.186l-1.088 3.23-1.616 4.845c-.461 1.285-.989 2.538-1.516 3.79l-.626 1.549c-1.912 4.713-3.922 9.295-6.031 13.909-3.725 8.207-7.779 16.315-11.997 24.588-3.922 7.679-8.57 15.228-13.085 22.611l-.989 1.648c-1.252 2.077-2.57 4.087-3.889 6.098-2.176 3.428-4.614 6.987-7.547 10.086-1.582 1.616-3.989 3.922-6.922 5.306-2.109.956-4.153 1.45-5.999 1.45-.428 0-.857-.033-1.285-.099-2.077-.264-4.549-.627-6.987-1.417-7.878-2.572-15.689-6.262-22.544-9.492l-2.901-1.352c-8.867-4.087-16.678-8.01-23.829-11.964-7.679-4.186-15.359-9.064-22.875-14.469-7.119-5.142-14.634-10.811-21.489-17.305l-2.274-2.176a115.547 115.547 0 0 1-4.087-3.955c-4.417-4.581-8.108-8.966-11.305-13.448-4.417-6.23-7.713-11.899-9.987-17.37-2.044-4.813-4.318-10.481-5.207-16.579-.363-2.669-.791-5.438-.791-8.24 0-.956.033-1.879.099-2.801.231-2.604.56-5.669 1.319-8.603 1.549-5.999 4.087-11.471 7.58-16.217 1.878-2.538 4.252-4.945 7.515-7.547 2.669-2.142 4.911-3.725 7.086-4.943 5.109-2.868 10.844-5.109 16.546-6.559 6.163-1.45 12.36-2.208 18.523-2.208 7.119 0 14.041.989 20.666 2.901a111.592 111.592 0 0 1 10.316 3.56c2.834 1.153 5.702 2.373 8.372 3.857 3.56 2.01 6.987 4.218 10.383 6.526.492-1.058.987-2.113 1.547-3.134zm-145.32 92.319c-.889-.528-1.352-1.648-1.054-2.604 1.187-4.054 2.669-7.943 4.186-11.865.428-1.153.956-2.308 1.45-3.428l.857-1.912c1.088-2.438 2.176-4.878 3.296-7.318.296-.66 1.088-1.121 1.681-1.285h.725c.757 0 1.121.099 1.45.296a2.997 2.997 0 0 1 1.285 1.681c.231.791-.033 1.516-.296 2.142l-1.121 2.373c-1.484 3.23-2.966 6.427-4.318 9.691a690.399 690.399 0 0 1-4.945 11.404c-.363.824-1.285 1.121-1.977 1.121-.461.002-.89-.097-1.219-.296zm8.305 14.075c-1.021-.296-1.78-1.252-1.713-2.241.132-3.033 1.021-5.999 1.912-8.867l.495-1.681c.757-2.505 1.582-4.977 2.406-7.45l.923-2.769c.396-1.186 1.45-1.977 2.637-1.977 1.417.296 2.044.824 2.373 1.484.329.626.396 1.285.197 1.878l-.857 2.538-2.472 7.679-1.088 3.461-.264.857-.428 1.22c-.461 1.384-.923 2.801-1.285 4.218-.231.989-1.187 1.714-2.241 1.714v.099l-.595-.163zm10.679-6.691a2.157 2.157 0 0 1 .593-1.616 2.452 2.452 0 0 1 1.713-.725c1.285 0 2.274.989 2.34 2.34.065.66 0 1.187-.132 1.714-.099.725-.231 1.352-.363 2.01a113.719 113.719 0 0 1-1.582 4.779c-.461 1.22-.923 2.438-1.352 3.692l-1.285 3.461c-.197.593-.428 1.22-.66 1.813a6.887 6.887 0 0 0-.428 1.153c0 .791-.396 1.582-.989 1.945-.329.165-.66.264-1.021.264a2.24 2.24 0 0 1-1.484-.593c-.956-.824-1.121-2.109-.593-3.989.363-1.22.791-2.44 1.22-3.626l.791-2.176.791-2.142c.363-.923.692-1.813 1.021-2.736a36.684 36.684 0 0 0 1.021-3.065l.165-.759.065.033a8.344 8.344 0 0 0 .169-1.777zm4.78 30.916c-.923-.231-1.616-1.153-1.549-2.077.132-2.604.626-5.207 1.121-7.383l.989-4.878.824-3.956c.197-1.088 1.252-1.616 2.176-1.616 1.78.396 2.44 1.516 2.142 2.801l-.791 4.021-1.021 4.813-.197 1.088c-.396 1.879-.791 3.79-1.088 5.702-.033.494-.528.989-.956 1.253-.296.197-.66.296-1.055.296v.099l-.595-.163zm234.377 3.857c-.099-4.218-.132-8.438-.165-12.657-.033-.66.231-1.253.692-1.747a2.57 2.57 0 0 1 1.813-.757 2.504 2.504 0 0 1 2.505 2.505l.033 2.109c.033 3.526.067 7.02-.033 10.547 0 1.352-1.088 2.438-2.406 2.438-1.351 0-2.406-1.055-2.439-2.438zm-227.258 7.383c-.56-.593-.824-1.352-.757-2.077.329-4.713 1.285-9.459 2.208-14.074l.692-3.362c.231-1.417 1.78-2.274 3.098-2.274 1.616.296 2.274.824 2.702 1.516.396.725.495 1.484.296 2.505l-.56 3.065c-.757 3.889-1.484 7.811-2.077 11.767l-.099.857c-.065.857-.264 1.582-.923 2.208a3.12 3.12 0 0 1-2.208.923c-.855 0-1.746-.396-2.372-1.054zm218.195 1.549c-.329-.363-.528-.857-.461-1.318l.067-1.021c.231-2.274.428-4.549.495-6.823.099-3.461.132-6.955.132-10.415 0-1.088.923-2.01 2.01-2.01 1.088 0 2.01.923 2.01 2.01 0 3.461-.033 6.955-.132 10.415-.033 2.241-.264 4.515-.461 6.79l-.099 1.055c-.033.56-.165 1.021-.593 1.417a1.967 1.967 0 0 1-1.417.593 2.184 2.184 0 0 1-1.551-.693zM210.8 463.318c-.56-.197-.989-.528-1.252-.956-.264-.495-.231-.956-.165-1.582.428-3.033 1.121-5.966 1.78-8.932l1.352-5.669 1.352-5.669c.231-.857 1.055-1.45 1.977-1.45 1.616.329 2.208 1.417 1.977 2.505a1487.99 1487.99 0 0 0-2.801 11.635c-.692 2.868-1.352 5.769-1.78 8.702-.033.495-.494.956-.889 1.187a2.374 2.374 0 0 1-1.055.264v.099l-.496-.134zm13.118 3.297c-.264-.857-.329-1.746-.132-2.769l.329-1.945.824-3.692c.528-2.274.989-4.582 1.384-6.922.132-1.121.296-2.34.197-3.526 0-.56-.033-1.153-.099-1.714-.494-1.845.197-3.033 1.352-3.362h.264c1.417 0 2.241.692 2.472 1.582.956 3.922.165 8.01-.56 11.997l-.231 1.088-.791 4.153-.725 3.56c.033.989.099 1.516-.264 2.109-.329.494-.791.857-1.319.956l-.593.099c-.921 0-1.779-.626-2.108-1.614zm32.168-16.316c0-.66 0-1.285-.033-1.945-.329-1.616.329-2.736 1.484-3.065h.197c1.352 0 2.308.56 2.472 1.549.428 2.109.296 4.153.065 5.933-.197 2.044-.66 4.252-1.352 6.526l-.461 1.484c-.264.857-.528 1.747-.824 2.604.824 1.352.528 2.472-.461 3.164-.363.264-.725.428-1.121.593-.329.033-.593.067-.791.067-.363 0-.56-.067-.824-.165-.593-.264-.989-.494-1.285-.956-.197-.329-.264-.692-.264-1.055 0-.396.033-.791.099-1.187l.329-1.22c.264-1.088.428-1.714.627-2.308l.461-1.648.461-1.648a42.903 42.903 0 0 0 1.021-4.417v.033c.102-.789.2-1.548.2-2.339zm11.471 13.811c-1.484-.428-2.34-1.912-1.977-3.428.56-2.572 1.021-4.681 1.417-6.823.165-1.813.264-3.56.264-5.373-.033-.725.264-1.417.791-1.977a2.87 2.87 0 0 1 2.044-.857c1.549 0 2.801 1.252 2.834 2.834.065 2.505-.099 4.647-.428 6.625a82.428 82.428 0 0 1-1.484 7.021c-.329 1.186-1.484 2.077-2.736 2.077v.065l-.725-.164zm-28.971 2.241c.065-5.537.428-11.075.791-16.611.099-1.616 1.252-2.769 2.736-2.769.757 0 1.516.329 2.077.923.494.528.757 1.187.692 1.845-.363 5.635-.725 11.14-1.318 16.611-.033.593-.165 1.22-.725 1.78a2.53 2.53 0 0 1-1.746.725c-1.354.001-2.507-1.152-2.507-2.504zm42.945-3.065c-1.153-.329-2.274-1.549-2.109-2.801l.165-1.451c.132-1.054.264-2.109.329-3.164.132-1.78.065-3.494-.132-5.142-.067-.725.396-1.582.857-2.077.528-.528 1.285-.824 2.077-.824s1.549.296 2.077.824c.593.593.725 1.22.857 2.077a23.19 23.19 0 0 1-.033 6.23l-.593 4.318c-.067.692-.725 1.352-1.285 1.714a3.283 3.283 0 0 1-1.484.363v.099l-.726-.166z" style="" fill="#c03000" data-original="#c03000"></path><path d="m236.217 61.499-1.713.363c-2.241.461-4.482.923-6.658 1.648-3.197 1.021-6.362 2.077-9.492 3.23l1.121-.495c-1.352.593-2.703 1.187-4.054 1.747-.923.428-1.845.923-2.736 1.417l-.824.461c-2.01 1.021-3.857 2.373-5.702 3.691-3.394 2.736-6.625 5.438-9.526 8.8-1.516 2.077-2.604 3.922-3.461 5.801a58.466 58.466 0 0 0-3.23 11.964c-.626 5.999-.396 12.129-.132 18.095l.033 1.153.165 4.153.132 4.153c.099 2.241.296 4.482.495 6.691l.099 1.187c.495 3.461.989 6.889 1.616 10.349l.593 3.296 1.186 6.79 1.088-.296.033.065c1.417-.396 2.868-.626 4.285-.889l2.01-.692 3.296-1.121c-.791-3-1.616-5.867-2.308-8.8-.725-3.362-1.352-6.691-1.845-10.119-.329-2.308-.627-4.746-.461-7.152.132-1.878.264-3.725.791-5.438.528-1.681 1.121-3.461 1.977-5.01.889-1.681 1.78-3 2.702-3.955 2.769-2.966 5.769-4.746 8.966-5.274 1.352-.264 2.142-.428 2.868-.428h.593c.956 0 1.451.065 1.945.165a13.59 13.59 0 0 1 3.79.956c3.098 1.384 5.669 3.658 7.547 5.471 1.121 1.021 2.208 2.077 3.164 3.23 1.417 1.582 2.736 3.197 3.625 5.076a53.206 53.206 0 0 1 1.78 4.285c.494 1.352.956 2.702 1.318 4.087.791 3.065 1.484 6.098 1.977 9.262.329 1.713.66 3.461 1.021 5.174 1.845-.132 3.625-.264 5.438-.329l-.264-1.713-.363-1.417c-.296-1.22-.626-2.44-.791-3.658l-.396-2.208c-.593-3.725-1.22-7.45-1.484-11.173-.264-3.757-.396-7.712.923-11.536.528-1.451 1.45-2.901 2.505-3.889.956-.857 1.813-1.616 2.736-2.077 1.153-.528 2.57-1.088 4.218-1.285a16.485 16.485 0 0 1 1.813-.099c.56 0 1.22 0 1.813.165a13.177 13.177 0 0 1 6.526 4.153c1.153 1.352 2.34 2.834 3.098 4.515.757 1.713 1.22 2.736 1.616 3.79.66 1.945 1.088 3.264 1.516 4.614l.428 1.352c.66 2.044 1.318 4.153 1.713 6.23l.593 3.362c.264 1.747.56 3.526.956 5.306.296 1.582.56 3.23.758 4.911.296.428.528.923.66 1.417l4.12.396c1.582.099 3.197.264 4.779.461a23.844 23.844 0 0 0 0-2.702 129.77 129.77 0 0 1-.363-6.098c-.197-4.549-.428-9.031-.956-13.546-.593-3.922-1.252-7.811-1.878-11.701l-1.352-8.404c-.956-6.098-2.736-12.327-5.767-20.238a45.13 45.13 0 0 0-4.35-7.911c-1.055-1.516-2.109-3-3.197-4.45a42.267 42.267 0 0 0-3.692-3.989c-1.582-1.121-3.197-2.01-4.911-2.801a50.837 50.837 0 0 0-10.086-2.901 53.507 53.507 0 0 0-5.109-.264c-3.127-.001-6.227.263-9.324.626z" style="" fill="#7f7f7f" data-original="#7f7f7f"></path><path d="M217.133 113.08c-.956.231-1.845.461-2.702.725-.66.329-1.252.66-1.845 1.055a19.062 19.062 0 0 0-2.176 2.109 27.44 27.44 0 0 0-1.977 3.461c-.56 1.549-1.055 3.098-1.318 4.779-.132 2.077-.033 4.153.197 6.23.528 3.658 1.285 7.284 2.142 10.943.66 2.834 1.45 5.702 2.308 8.536l5.042-1.22 1.22-.296a242.424 242.424 0 0 1 17.535-3.526l.231-3.065a64.019 64.019 0 0 0-.363-9.228 32.923 32.923 0 0 0-.725-3.526c-.231-1.352-.692-2.801-1.417-4.549-.692-1.45-1.417-2.736-2.373-4.054a55.683 55.683 0 0 0-6.163-5.999c-1.055-.725-2.109-1.384-3.264-1.945a9.686 9.686 0 0 0-1.747-.461c-.396 0-.757-.033-1.153-.033-.496-.002-.958.031-1.452.064zM258.959 111.334c-.329 0-.627 0-.956.033a7.74 7.74 0 0 0-1.845.528c-.296.099-.56.264-.857.495a7.114 7.114 0 0 0-1.22 1.22c0 .033-.428.757-.428.757-.329.989-.56 1.945-.725 3-.165 3.725.231 7.482.66 10.976l.231 1.417c.165.956.296 1.912.461 2.834l.231 1.417c.099.692.197 1.352.329 2.01l1.384 5.999.495 2.01 3.098.065c2.669 0 5.406.033 8.075.231l.065-1.055-.033-1.252c0-.824 0-1.681.033-2.505.033-3.164 0-6.559-.363-9.953-.725-4.12-1.582-8.503-3.197-12.657a30.32 30.32 0 0 0-1.516-2.637 17.382 17.382 0 0 0-1.845-1.945l-.989-.626c-.461-.197-.757-.264-1.055-.363l-.033.001z" style="" fill="#404040" data-original="#404040"></path><path d="M301.637 225.81c-5.669.461-11.041 2.01-16.381 4.779-4.779 2.505-8.932 5.999-12.393 9.13-2.868 2.572-5.57 5.769-8.24 9.789-1.78 2.604-3.362 5.339-4.911 8.075l-.725 1.252-.725 1.252-.824 1.484c-1.549 2.736-3.098 5.471-4.515 8.24-.56 1.021-1.055 2.077-1.549 3.132-3.394-2.308-6.823-4.515-10.383-6.526-2.669-1.484-5.537-2.702-8.372-3.857a111.889 111.889 0 0 0-10.316-3.56 74.343 74.343 0 0 0-20.666-2.901c-6.163 0-12.36.757-18.523 2.208-5.702 1.45-11.437 3.692-16.546 6.559-2.176 1.22-4.417 2.801-7.086 4.943-3.264 2.604-5.637 5.01-7.515 7.547-3.494 4.746-6.031 10.218-7.58 16.217-.757 2.933-1.088 5.999-1.319 8.603a39.608 39.608 0 0 0-.099 2.801c0 2.801.428 5.57.791 8.24.889 6.098 3.164 11.767 5.207 16.579 2.274 5.471 5.57 11.14 9.987 17.37 3.197 4.482 6.888 8.867 11.305 13.448a115.547 115.547 0 0 0 4.087 3.955l2.274 2.176c6.855 6.493 14.37 12.163 21.489 17.305 7.515 5.406 15.194 10.284 22.875 14.469 7.152 3.955 14.964 7.878 23.83 11.964l2.901 1.352c6.855 3.23 14.667 6.922 22.544 9.492 2.44.791 4.911 1.153 6.987 1.417.428.065.857.099 1.285.099 1.845 0 3.889-.495 5.999-1.45 2.933-1.384 5.339-3.692 6.922-5.306 2.933-3.098 5.373-6.658 7.547-10.086 1.319-2.011 2.637-4.021 3.889-6.098l.989-1.648c4.515-7.383 9.163-14.93 13.085-22.611 4.218-8.274 8.272-16.381 11.997-24.588 2.109-4.614 4.12-9.196 6.031-13.909l.626-1.549c.528-1.252 1.055-2.505 1.516-3.79l1.616-4.845 1.088-3.23c.461-1.352.791-2.769 1.121-4.186l.56-2.176c.495-1.813.824-3.625 1.187-5.471l.231-1.088c.857-4.35 1.681-8.735 2.274-13.152l.791-5.999c0-.067.033-.528-.033-.528-.033 0-.033-.329-.033-.363.791-4.813 1.121-9.624 1.187-14.272l.033-1.021v-1.055c-.033-5.373-.692-10.481-1.912-15.228-1.45-5.702-4.218-10.909-6.493-14.798-2.406-4.12-5.735-7.943-9.591-11.075-3.625-2.933-7.811-5.01-12.756-6.362-1.714-.494-3.461-.725-5.207-.956l-1.582-.197a29.569 29.569 0 0 0-3.79-.231c-1.417.005-2.801.103-4.186.235zM256.68 399.838l.367.174-.248-.098-.119-.076z" style="" fill="#ffffff" data-original="#ffffff"></path><path d="M433.515 254.082c-1.318-8.438-2.933-16.909-5.767-24.984-1.616-4.647-3.329-9.295-5.637-13.645-2.077-3.956-4.285-7.811-6.723-11.536a86.962 86.962 0 0 0-9.262-11.8c-2.868-3.098-6.098-5.801-9.295-8.503-7.186-6.031-15.326-10.547-23.698-14.7-4.549-2.274-9.394-4.087-14.14-5.899a228.017 228.017 0 0 0-12.096-4.186c-3.989-1.285-8.042-2.34-12.064-3.428-4.285-1.121-8.536-2.34-12.788-3.526-7.524-2.041-15.245-3.102-22.93-4.342.184-.921.366-1.839.452-2.809.132-1.912.033-3.757-.067-5.669-.231-4.218-.428-8.404-.923-12.591-.528-4.45-1.417-8.8-2.34-13.184-.889-4.285-1.714-8.603-2.637-12.888-.956-4.252-2.34-8.372-3.889-12.393-2.044-5.373-4.218-10.909-7.614-15.59a153.6 153.6 0 0 0-3.922-5.207c-.857-1.055-1.713-2.109-2.572-3.132-1.977-2.406-4.285-4.384-6.889-6.065-3.033-1.912-6.591-3-9.954-4.087-2.44-.824-5.01-1.285-7.547-1.582-1.945-.231-3.922-.428-5.899-.428-.089 0-.17.009-.257.01.116-.397.202-.805.188-1.224 0-.495.067-.956.067-1.451 0-.791-.165-1.582-.296-2.34-.264-1.384-.626-2.736-.989-4.087-.363-1.484-.956-2.901-1.845-4.153a28.861 28.861 0 0 0-1.78-2.208c-1.088-1.252-2.241-2.406-3.593-3.362-.461-.329-.923-.66-1.417-.923-1.088-.66-2.308-1.021-3.56-1.285-1.319-.231-2.669-.264-3.989-.329a28.028 28.028 0 0 0-.579-.007c-.842 0-1.668.11-2.497.189-2.702-1.43-5.411-2.831-8.242-3.953a45.205 45.205 0 0 0-5.538-1.813c-2.109-.528-4.285-.757-6.427-1.055-3.824-.461-7.647-.461-11.503-.197-4.12.264-8.207.989-12.261 1.78-6.813 1.344-13.473 3.181-20.339 4.224a9.99 9.99 0 0 0 .167-.037c-4.43.546-8.86.747-13.32.33-2.303-.332-4.531-.802-6.684-1.623a14.662 14.662 0 0 1-2.232-1.263c-.411-.34-.828-.675-1.182-1.085a23.44 23.44 0 0 1-2.111-3.692 15.97 15.97 0 0 1-.72-2.765c-.029-.56-.007-1.121.047-1.681.264-1.169.554-2.235.963-3.334.46-.918.964-1.779 1.512-2.632a21.172 21.172 0 0 1 2.893-2.859 27.006 27.006 0 0 1 3.129-1.883 29.75 29.75 0 0 1 4.749-1.369c1.187-.078 2.336-.123 3.529-.048 1.672.26 3.292.65 4.879 1.171a3.66 3.66 0 0 0-.298.517c-.528 1.153-.791 2.208-.461 3.461.329 1.121 1.055 2.109 2.077 2.702a4.519 4.519 0 0 0 3.461.428c1.616-.428 2.57-1.616 3.131-3.132.165-.428.296-.824.363-1.285.132-.593.165-1.22.132-1.845 0-.627-.065-1.252-.165-1.912a16.814 16.814 0 0 0-.692-1.813c-.329-.528-.725-.956-1.252-1.252-.495-.461-1.055-.759-1.713-.989a6.746 6.746 0 0 0-1.417-.329c-2.241-.428-4.417-1.088-6.691-1.352A24.888 24.888 0 0 0 149.804 0c-.831 0-1.664.042-2.53.119-1.713.165-3.329.66-4.977 1.187-2.572.791-5.109 2.274-7.086 4.054-2.274 2.01-4.12 4.417-5.274 7.251-1.153 2.801-1.912 6.13-1.187 9.13.725 2.868 1.945 5.899 3.922 8.142.757.857 1.549 1.713 2.538 2.34 1.417.889 2.834 1.549 4.35 2.208 1.582.66 3.329.956 5.01 1.252 1.813.363 3.691.494 5.537.626 3.757.231 7.614-.132 11.339-.66 2.109-.329 4.218-.692 6.295-1.153 7.195-1.57 14.356-3.431 21.615-4.587a94.834 94.834 0 0 1 8.016-.622c2.703-.061 5.437.17 8.116.473a84.84 84.84 0 0 1 3.981.714c1.861.385 3.625 1.059 5.39 1.732.773.337 1.511.754 2.275 1.109-.755.535-1.557 1.004-2.246 1.655-1.451 1.384-2.538 3.197-3.526 4.911-1.121 1.878-1.878 4.054-2.538 6.163-.66 2.208-.824 4.681-.956 6.987 0 .923.033 1.813.065 2.736l.099 4.383c.01.336.124.64.21.952-1.366.696-2.741 1.378-4.063 2.139-1.582.889-3.131 1.945-4.614 3.065-3.262 2.472-6.493 4.943-9.36 7.943-1.977 2.01-3.658 4.383-5.174 6.79-1.352 2.109-2.241 4.581-3.164 6.889-1.088 2.702-1.746 5.603-2.373 8.438-.56 2.57-.889 5.274-1.055 7.911-.099 2.109-.231 4.252-.231 6.362.033 2.57.099 5.142.165 7.713.099 4.087.132 8.24.528 12.327.495 4.813 1.055 9.624 1.945 14.37.842 4.766 1.742 9.501 2.557 14.238-.53.199-1.067.374-1.601.56-1.977.725-3.922 1.384-5.867 2.208-2.572 1.121-5.174 2.241-7.746 3.362-2.142.923-4.153 2.109-6.23 3.131-1.945 1.021-3.823 2.176-5.702 3.264-3.725 2.208-7.35 4.647-10.779 7.318-1.977 1.582-3.955 3.098-5.933 4.681-2.142 1.681-4.12 3.593-6.163 5.373-2.966 2.637-5.933 5.373-8.635 8.274-1.878 2.01-3.757 3.989-5.635 5.999-3.922 4.186-7.416 8.767-10.679 13.448-2.901 4.12-5.471 8.503-7.878 12.953-2.044 3.691-4.186 7.448-5.867 11.339-1.088 2.472-2.142 4.943-3.23 7.416-1.021 2.34-1.845 4.746-2.736 7.119-.626 1.713-1.285 3.362-1.813 5.109-.757 2.505-1.516 5.01-2.241 7.515-.725 2.373-1.153 4.878-1.746 7.318-.495 2.109-.857 4.252-1.252 6.394a260.3 260.3 0 0 0-1.977 12.393c-.725 5.043-1.484 10.086-2.077 15.129-1.088 8.998-2.109 18.03-2.308 27.093-.099 4.482-.296 8.932 0 13.414.296 4.45.593 8.899 1.187 13.349.296 2.44.626 4.878.923 7.318.396 2.966.956 5.901 1.45 8.8.759 4.417 2.044 8.702 3.23 12.986 1.187 4.318 2.801 8.536 4.384 12.756 1.582 4.285 3.428 8.471 5.274 12.657 1.912 4.252 3.922 8.471 6.163 12.591a164.133 164.133 0 0 0 6.955 11.536c2.702 4.153 5.702 8.075 8.833 11.899 2.801 3.394 5.735 6.691 8.932 9.723 6.757 6.494 14.14 12.261 22.149 17.139 3.658 2.241 7.383 4.384 11.108 6.493 1.878 1.055 3.725 2.142 5.637 3.131 2.077 1.088 4.153 2.308 6.295 3.23 2.572 1.121 5.142 2.44 7.779 3.362 2.241.791 4.482 1.582 6.757 2.373 2.241.791 4.581 1.352 6.888 2.044 2.142.627 4.35 1.187 6.526 1.747 8.834 2.373 17.733 4.45 26.73 6.065 8.964 1.582 18.095 2.077 27.191 2.373 9.031.329 18.127.593 27.159-.099 4.35-.296 8.668-.66 13.02-1.153 2.604-.296 5.241-.528 7.844-.923 2.34-.396 4.746-.626 7.086-1.121 4.384-.989 8.834-1.912 13.118-3.329 4.12-1.352 8.339-2.637 12.393-4.285 2.669-1.088 5.373-2.142 8.042-3.329 4.186-1.912 8.042-4.318 11.8-6.955 4.021-2.801 7.878-5.834 11.635-8.998 6.461-5.471 11.865-12.129 17.337-18.556 6.197-7.251 12.03-14.733 16.875-22.94 4.713-8.01 8.735-16.414 12.591-24.852a367.291 367.291 0 0 0 10.679-25.807c3.065-8.24 6.13-16.546 8.24-25.116 2.109-8.603 3.79-17.305 5.274-26.038 1.616-9.262 2.933-18.556 3.428-27.95.461-9.262.757-18.491.593-27.753-.168-9.529-1.782-19.023-3.298-28.383zM221.798 39.233c.119-.044.238-.088.357-.128-.119.048-.24.094-.366.137l.009-.009zm-.014.01a4.46 4.46 0 0 1-.138.046c.051-.02.101-.037.149-.054-.005.002-.007.005-.011.008zM215.9 50.616a28.019 28.019 0 0 1 1.259-4.807 30.296 30.296 0 0 1 2.368-4.278 16.867 16.867 0 0 1 1.911-1.99c.268-.178.549-.334.833-.473.776-.263 1.54-.465 2.342-.631 1.873-.172 3.746-.133 5.617.016.172.035.345.072.518.104.547.283 1.046.564 1.553.905.462.402.899.841 1.31 1.32a24.23 24.23 0 0 1 1.605 2.569c.2.692.346 1.397.468 2.105a8.388 8.388 0 0 1-.061-.529c.027.193.051.389.071.584.033.191.064.38.094.569-.031-.171-.061-.35-.09-.532.101.956.129 1.93.155 2.905.03 1.503.388 2.702.949 4.021-2.326.247-4.64.601-6.913 1.148-2.109.495-4.186.989-6.262 1.616-2.438.725-4.813 1.516-7.218 2.308-.2.068-.387.168-.586.239-.066-2.4-.124-4.787.077-7.169zm-25.959 49.511a58.402 58.402 0 0 1 3.23-11.964c.857-1.878 1.945-3.725 3.461-5.801 2.901-3.362 6.13-6.065 9.526-8.8 1.845-1.319 3.692-2.669 5.702-3.691l.824-.461a42.638 42.638 0 0 1 2.736-1.417c1.352-.56 2.702-1.153 4.054-1.746l-1.121.494 1.041-.379.114-.05a3.211 3.211 0 0 1-.103.046 238.274 238.274 0 0 1 8.442-2.848c2.176-.725 4.417-1.187 6.658-1.648l1.713-.363c3.098-.363 6.197-.626 9.328-.626 1.681 0 3.394.099 5.109.264a50.77 50.77 0 0 1 10.086 2.901c1.714.791 3.329 1.681 4.911 2.801a42.033 42.033 0 0 1 3.692 3.989 153.246 153.246 0 0 1 3.197 4.45 45.028 45.028 0 0 1 4.35 7.911c3.033 7.911 4.813 14.14 5.767 20.237l1.352 8.405c.626 3.889 1.285 7.779 1.878 11.701.528 4.516.759 8.998.956 13.546.065 2.01.197 4.054.363 6.098.031.64.06 1.303.003 2.604h-.003v.099a77.993 77.993 0 0 0-4.779-.461l-4.02-.385-.001-.009h-.099a4.613 4.613 0 0 0-.66-1.417 72.254 72.254 0 0 0-.758-4.911c-.396-1.78-.692-3.56-.956-5.306l-.593-3.362c-.396-2.077-1.055-4.186-1.713-6.23l-.428-1.352a226.667 226.667 0 0 0-1.516-4.614c-.396-1.055-.857-2.077-1.616-3.79-.759-1.681-1.945-3.164-3.098-4.515a13.177 13.177 0 0 0-6.526-4.153c-.593-.165-1.252-.165-1.813-.165-.626 0-1.22.033-1.813.099-1.648.199-3.065.759-4.218 1.285-.923.461-1.78 1.22-2.736 2.077-1.055.989-1.977 2.44-2.505 3.889-1.319 3.824-1.187 7.779-.923 11.536.264 3.725.889 7.449 1.484 11.173l.396 2.208c.165 1.22.495 2.44.791 3.658l.363 1.417.231 1.516.033.144v.054c-1.746.065-3.494.197-5.274.329-.033 0-.065.005-.097.008l-.001-.008h-.065c-.363-1.713-.692-3.461-1.021-5.174-.495-3.164-1.187-6.196-1.977-9.262-.363-1.384-.824-2.736-1.318-4.087a53.726 53.726 0 0 0-1.78-4.285c-.889-1.878-2.208-3.494-3.625-5.075-.956-1.153-2.044-2.208-3.164-3.23-1.879-1.813-4.45-4.087-7.547-5.471a13.617 13.617 0 0 0-3.79-.956c-.494-.099-.989-.165-1.945-.165h-.593c-.725 0-1.516.165-2.868.428-3.197.528-6.197 2.308-8.966 5.274-.923.956-1.813 2.274-2.702 3.956-.857 1.549-1.451 3.329-1.977 5.01-.528 1.713-.66 3.56-.791 5.438-.165 2.406.132 4.845.461 7.152.494 3.428 1.121 6.757 1.845 10.119.684 2.899 1.499 5.737 2.28 8.699-.003 0-.004.001-.007.003.033.033.033.065.033.099l-3.296 1.121-2.01.692c-1.417.264-2.868.495-4.285.889l-.033-.065c-.329.093-.667.185-.999.277v-.005l-.089.025-1.186-6.79-.593-3.296c-.627-3.461-1.121-6.888-1.616-10.349l-.099-1.187c-.197-2.208-.396-4.45-.495-6.691l-.132-4.153-.165-4.153-.033-1.153c-.269-5.973-.499-12.104.127-18.102zm66.852 43.904-.076-.001-.001-.005-.494-2.005-1.384-5.999a35.714 35.714 0 0 1-.329-2.01l-.231-1.417c-.165-.923-.296-1.878-.461-2.834l-.231-1.417c-.428-3.494-.824-7.251-.66-10.976a18.193 18.193 0 0 1 .724-2.999s.428-.725.428-.757a7.186 7.186 0 0 1 1.22-1.22c.296-.231.56-.396.857-.495a7.826 7.826 0 0 1 1.845-.528c.329-.033.626-.033.956-.033h.033c.296.099.593.165 1.055.363l.201.128c.112.039.219.082.327.136a6.452 6.452 0 0 0-.266-.098l.727.461c.189.171.374.343.552.521l.008.007-.004-.003c.445.439.868.905 1.29 1.421.56.857 1.055 1.747 1.516 2.637 1.616 4.153 2.472 8.536 3.197 12.657.363 3.394.396 6.79.363 9.954-.033.824-.033 1.681-.033 2.505l.033 1.252-.059.932.003.037h-.005l-.005.088c-2.669-.197-5.406-.231-8.075-.231l-3.021-.071zm-44.952 6.867-.081.02a137.085 137.085 0 0 1-2.308-8.536c-.857-3.658-1.616-7.284-2.142-10.943-.231-2.077-.329-4.153-.197-6.23.264-1.681.757-3.23 1.318-4.779.593-1.22 1.22-2.34 1.977-3.461.66-.757 1.384-1.45 2.176-2.109a16.828 16.828 0 0 1 1.845-1.055c.14-.043.282-.084.423-.125a1.28 1.28 0 0 1 .204-.073.987.987 0 0 1-.082.037c.69-.199 1.403-.381 2.159-.564.495-.033.956-.065 1.451-.065.396 0 .757.033 1.153.033a9.747 9.747 0 0 1 1.747.461c1.153.56 2.208 1.22 3.264 1.945a55.504 55.504 0 0 1 6.163 5.999c.956 1.318 1.681 2.604 2.373 4.054.725 1.747 1.187 3.197 1.417 4.549.296 1.121.528 2.241.725 3.526a64.32 64.32 0 0 1 .363 9.228l-.226 2.999h-.005v.065l-.012.003a243.073 243.073 0 0 0-17.523 3.524l-1.22.296-4.962 1.201zM421.088 315.42c-.231 4.021-.66 8.075-1.121 11.997l-.329 2.01c-1.845 11.832-3.757 24.028-6.987 35.761-3.494 12.821-8.404 25.412-12.756 35.992-3.56 8.24-7.086 15.821-10.745 23.137-1.681 3.428-3.626 6.79-5.57 10.086l-.956 1.616c-2.01 3.394-4.417 6.625-6.757 9.756-4.086 5.109-8.339 10.086-12.624 14.997-2.044 2.34-4.087 4.681-6.295 6.823l-1.319 1.285c-.725.692-1.417 1.417-2.142 2.044l-2.801 2.34-1.187 1.021a94.296 94.296 0 0 1-4.911 3.658l-1.879 1.352-1.912 1.319c-3.164 2.241-6.79 4.021-9.92 5.471-2.604 1.088-5.241 2.109-8.57 3.362-2.702.956-5.406 1.945-8.174 2.736-3.296.923-6.591 1.813-9.953 2.572-2.966.692-5.966 1.187-8.966 1.681-11.701 1.352-21.556 2.274-31.575 2.274h-2.241c-5.933-.099-11.832-.231-17.732-.528-3.098-.132-6.197-.363-9.295-.593-2.34-.197-4.681-.528-6.691-.791-4.417-.791-8.834-1.616-13.217-2.637-3.625-.791-7.218-1.681-11.272-2.736-3.757-.956-7.547-1.912-11.24-3.033l-2.241-.626c-1.319-.396-2.637-.759-3.956-1.22l-6.031-2.176a227.078 227.078 0 0 0-5.142-2.208c-1.121-.495-2.176-1.088-3.264-1.681l-1.977-1.055c-3.132-1.616-6.197-3.394-9.823-5.537l-1.747-.989c-2.801-1.616-5.603-3.23-8.272-5.01l-1.977-1.285a63.604 63.604 0 0 1-3.098-2.077l-1.549-1.187-2.834-2.109a316.012 316.012 0 0 0-4.845-4.153 36.346 36.346 0 0 1-1.616-1.549l-.824-.791-.824-.791c-.56-.528-1.153-1.055-1.681-1.616l-1.549-1.648c-1.055-1.088-2.077-2.176-3.033-3.329l-4.054-4.911c-1.912-2.604-3.79-5.174-5.537-7.844-1.45-2.176-2.801-4.417-4.153-6.625l-.757-1.318c-3.23-5.306-5.834-11.075-8.603-17.238l-.691-1.646c-.956-2.241-1.878-4.45-2.702-6.658a280.64 280.64 0 0 1-3.889-11.14c-2.208-6.723-3.56-13.744-4.845-20.929-.757-5.867-1.484-11.733-1.945-17.601-.396-5.471-.428-11.24-.165-17.666.296-7.021.757-13.546 1.45-19.908.56-4.845 1.153-9.691 1.747-14.536l.396-2.373.197-1.582-.197.791c.593-4.417 1.252-8.8 1.977-13.184.329-1.813.692-3.658 1.088-5.471l.428-1.945c.329-1.582.66-3.164 1.121-4.746l1.088-3.857 1.121-3.857c.396-1.484.956-2.933 1.484-4.383l.528-1.384c1.352-3.79 2.901-7.515 4.45-11.207 4.549-9.591 9.691-19.743 16.381-28.906 0 0 .626-.759.626-.791 2.834-3.526 5.801-6.889 8.8-10.284l.692-.791c1.878-2.077 3.857-4.021 5.867-5.999l1.088-1.088c4.515-4.515 9.459-8.668 13.744-12.196a384.011 384.011 0 0 1 6.262-4.549c.66-.461 1.352-.889 2.01-1.285l1.055-.626 1.845-1.153 1.845-1.121c.66-.428 1.384-.791 2.109-1.186l1.186-.593a154.999 154.999 0 0 0 4.021-2.142c.889-.495 1.845-.889 2.801-1.285l1.285-.528 3.296-1.516c1.78-.692 3.526-1.352 5.438-2.044 2.801-.56 5.635-1.088 8.471-1.616 2.801-.528 5.603-1.055 8.404-1.648 6.691-1.384 14.337-2.868 22.215-4.087a588.03 588.03 0 0 1 7.614-1.153h.099l.923-.231.923-.132c3.428-.461 6.823-.956 10.284-1.088a57.788 57.788 0 0 1 3.329-.099l.099.065v-.099c3.197.132 6.394.396 9.559.791l-1.055-.165 1.616.231 1.616.231c.428.065.824.132 1.186.132.692 0 1.285-.165 2.472-.923 2.901.165 5.767.461 8.635.791 2.44.296 4.878.528 7.318.757l5.603.56c3.989.593 7.911 1.352 11.832 2.077 2.34.461 4.681.889 7.02 1.285l1.021.199c2.834.494 5.669.989 8.438 1.713 3.23.824 6.394 1.713 10.383 2.868 2.472.725 4.945 1.384 7.416 2.077 3.922 1.055 7.844 2.142 11.733 3.428 5.702 1.845 11.832 4.12 18.722 6.955 8.603 3.955 15.92 8.075 22.315 12.591 2.604 2.109 5.142 4.252 7.614 6.526 2.868 2.604 5.373 5.505 7.218 7.746a128.723 128.723 0 0 1 11.635 19.743c3.033 7.746 5.109 14.733 6.427 21.391 1.384 7.02 2.637 14.337 3.823 22.412.593 5.438.923 10.02 1.055 14.37.132 4.681.165 9.394.065 14.106-.1 5.18-.232 10.388-.496 15.562z" style="" fill="#161616" data-original="#161616"></path><path d="m235.692 45.509-.009-.055.013.093-.004-.038zM120.066 340.214l1.121-2.373c.264-.626.528-1.352.296-2.142a2.997 2.997 0 0 0-1.285-1.681c-.329-.197-.692-.296-1.45-.296h-.725c-.593.165-1.384.627-1.681 1.285-1.121 2.438-2.208 4.878-3.296 7.318l-.857 1.912c-.495 1.121-1.021 2.274-1.45 3.428-1.516 3.922-3 7.811-4.186 11.865-.296.956.165 2.077 1.055 2.604.329.197.757.296 1.22.296.692 0 1.616-.296 1.977-1.121a707.808 707.808 0 0 0 4.945-11.404c1.349-3.264 2.833-6.462 4.316-9.691zM124.285 357.121l.857-2.538c.197-.593.132-1.252-.197-1.878-.329-.66-.956-1.187-2.373-1.484-1.187 0-2.241.791-2.637 1.977l-.923 2.769c-.824 2.472-1.648 4.945-2.406 7.45l-.495 1.681c-.889 2.868-1.78 5.834-1.912 8.867-.065.989.692 1.945 1.713 2.241l.559.155.034.001v-.09c1.055 0 2.01-.725 2.241-1.714.363-1.417.824-2.834 1.285-4.218l.428-1.22.264-.857 1.088-3.461 2.474-7.681zM131.107 371.229a4.798 4.798 0 0 0 .132-1.714c-.065-1.352-1.055-2.34-2.34-2.34a2.45 2.45 0 0 0-1.713.725 2.152 2.152 0 0 0-.593 1.616c0 .56-.033 1.121-.165 1.78l-.065-.033-.165.759a37.054 37.054 0 0 1-1.021 3.065c-.329.923-.66 1.813-1.021 2.736l-.791 2.142-.791 2.176a67.918 67.918 0 0 0-1.22 3.625c-.528 1.879-.363 3.164.593 3.989.428.396.989.593 1.484.593.363 0 .692-.099 1.021-.264.593-.363.989-1.153.989-1.945.099-.396.264-.791.428-1.153.231-.593.461-1.22.66-1.813l1.285-3.461c.428-1.252.889-2.472 1.352-3.692.56-1.582 1.088-3.164 1.582-4.779.13-.66.261-1.287.359-2.012zM134.931 380.524c-.923 0-1.977.528-2.176 1.616l-.824 3.956-.989 4.878c-.495 2.176-.989 4.779-1.121 7.383-.067.923.626 1.845 1.549 2.077l.543.151.05.001v-.086a1.89 1.89 0 0 0 1.055-.296c.428-.264.923-.759.956-1.252.296-1.912.692-3.824 1.088-5.702l.197-1.088 1.021-4.813.791-4.021c.299-1.288-.36-2.41-2.14-2.804zM143.731 389.884c-1.318 0-2.868.857-3.098 2.274l-.692 3.362c-.923 4.614-1.879 9.36-2.208 14.074-.067.725.197 1.484.757 2.077.626.66 1.516 1.055 2.373 1.055.824 0 1.616-.329 2.208-.923.66-.626.857-1.352.923-2.208l.099-.857c.593-3.956 1.318-7.878 2.077-11.767l.56-3.065c.197-1.021.099-1.78-.296-2.505-.429-.693-1.087-1.221-2.703-1.517zM215.848 439.06c-.923 0-1.747.593-1.977 1.45l-1.352 5.669-1.352 5.669c-.66 2.966-1.352 5.899-1.78 8.932-.065.627-.099 1.088.165 1.582.264.428.692.757 1.252.956l.488.129h.007v-.097c.363 0 .725-.099 1.055-.264.396-.231.857-.692.889-1.186.428-2.933 1.088-5.834 1.78-8.702a1487.99 1487.99 0 0 1 2.801-11.635c.231-1.085-.362-2.173-1.976-2.503zM228.042 442.686h-.264c-1.153.329-1.845 1.516-1.352 3.362.065.56.099 1.153.099 1.714.099 1.187-.067 2.406-.197 3.526-.396 2.34-.857 4.648-1.384 6.922l-.824 3.692-.329 1.945c-.197 1.021-.132 1.912.132 2.769.329.989 1.186 1.616 2.109 1.616l.593-.099c.528-.099.989-.461 1.319-.956.363-.593.296-1.121.264-2.109l.725-3.56.791-4.153.231-1.088c.725-3.989 1.516-8.075.56-11.997-.232-.892-1.056-1.584-2.473-1.584zM242.116 446.971c-1.484 0-2.637 1.153-2.736 2.769-.363 5.537-.725 11.075-.791 16.611 0 1.352 1.153 2.505 2.505 2.505a2.53 2.53 0 0 0 1.747-.725c.56-.56.692-1.187.725-1.78.593-5.471.956-10.976 1.319-16.611.065-.66-.197-1.319-.692-1.845-.561-.595-1.318-.924-2.077-.924zM257.74 445.289h-.197c-1.153.329-1.813 1.45-1.484 3.065.033.66.033 1.285.033 1.945 0 .791-.099 1.549-.199 2.34l-.033-.033c-.264 1.484-.56 2.933-.989 4.417l-.461 1.648-.461 1.648c-.197.593-.363 1.22-.626 2.308l-.329 1.22a7.095 7.095 0 0 0-.099 1.187c0 .363.065.725.264 1.055.296.461.692.692 1.285.956.264.099.461.165.824.165.197 0 .461-.033.791-.067.396-.165.757-.329 1.121-.593.989-.692 1.285-1.813.461-3.164.296-.857.56-1.746.824-2.604l.461-1.484c.692-2.274 1.153-4.482 1.352-6.526.231-1.78.363-3.823-.065-5.933-.167-.99-1.123-1.55-2.473-1.55zM270.1 445.652a2.87 2.87 0 0 0-2.044.857c-.528.56-.824 1.252-.791 1.977 0 1.813-.099 3.56-.264 5.373-.396 2.142-.857 4.252-1.417 6.823-.363 1.516.495 3 1.977 3.428l.725.165v-.067c1.252 0 2.406-.889 2.736-2.077a83.186 83.186 0 0 0 1.484-7.02c.329-1.977.495-4.12.428-6.625-.033-1.582-1.285-2.834-2.834-2.834zM282.722 447.828c-.791 0-1.549.296-2.077.824-.461.495-.923 1.352-.857 2.077.197 1.648.264 3.362.132 5.142-.065 1.055-.197 2.109-.329 3.164l-.165 1.451c-.165 1.253.956 2.472 2.109 2.801l.724.165h.003v-.098c.528 0 1.021-.132 1.484-.363.56-.363 1.22-1.021 1.285-1.714l.593-4.318c.296-2.176.296-4.186.033-6.23-.132-.857-.264-1.484-.857-2.077-.527-.528-1.286-.824-2.078-.824zM358.926 391.631c-1.088 0-2.01.923-2.01 2.01 0 3.461-.033 6.955-.132 10.415-.065 2.274-.264 4.549-.495 6.823l-.065 1.021c-.067.461.132.956.461 1.318.396.428.989.692 1.549.692.528 0 1.021-.197 1.417-.593.428-.396.56-.857.593-1.417l.099-1.055c.197-2.274.428-4.549.461-6.79.099-3.461.132-6.955.132-10.415.001-1.087-.923-2.009-2.01-2.009zM368.089 389.126c-.66 0-1.318.264-1.813.757-.461.495-.725 1.088-.692 1.747.033 4.218.067 8.438.165 12.657.033 1.384 1.088 2.438 2.44 2.438 1.318 0 2.406-1.088 2.406-2.438.099-3.526.067-7.02.033-10.547l-.033-2.109a2.506 2.506 0 0 0-2.506-2.505z" style="" fill="#161616" data-original="#161616"></path></g></svg>