<svg xmlns="http://www.w3.org/2000/svg" version="1.1" xmlns:xlink="http://www.w3.org/1999/xlink" width="512" height="512" x="0" y="0" viewBox="0 0 506 506.314" style="enable-background:new 0 0 512 512" xml:space="preserve" class=""><g transform="matrix(1.0000000000000009,0,0,1.0000000000000009,104.99999999999986,-1.9895196601282805e-13)"><path fill="#9ed26a" d="M71.188 504.836a4.267 4.267 0 0 1-2.73-7.55l1.546-1.282-14.3 8.25a4.265 4.265 0 0 1-5.583-1.242 4.265 4.265 0 0 1 .664-5.676l23.27-19.984-46.23 26.683a4.266 4.266 0 0 1-5.622-1.305 4.261 4.261 0 0 1 .817-5.71l42.359-33.997-52.055 30.055a4.267 4.267 0 0 1-4.719-7.082l47.872-36.586-44.688 25.805a4.262 4.262 0 0 1-5.723-1.39 4.272 4.272 0 0 1 1.122-5.786l26.957-19.105-22.356 12.902a4.266 4.266 0 0 1-4.703-7.098l46.473-35.074-41.813 24.117a4.271 4.271 0 0 1-5.668-1.476 4.268 4.268 0 0 1 1.145-5.742l3.414-2.29a4.268 4.268 0 0 1-3.414-7.68L14 421.978l-2.246 1.289a4.266 4.266 0 0 1-5.727-1.356 4.27 4.27 0 0 1 1.078-5.785l36.641-26.668L11.79 407.93c-1.957 1.16-4.477.578-5.73-1.317s-.801-4.441 1.027-5.789l45.227-33.902-40.524 23.371a4.267 4.267 0 0 1-4.566-7.203l16.101-11.125-11.535 6.664a4.268 4.268 0 0 1-4.625-7.16l31.984-22.965-27.359 15.781a4.267 4.267 0 0 1-4.617-7.16l30.984-22.188-26.367 15.215a4.268 4.268 0 0 1-4.559-7.21l14.118-9.704-9.532 5.504a4.267 4.267 0 0 1-4.602-7.176l26.849-19.011-22.247 12.8a4.269 4.269 0 0 1-5.668-1.476 4.265 4.265 0 0 1 1.145-5.742l3.336-2.262a4.266 4.266 0 0 1-4.871-2.441 4.261 4.261 0 0 1 1.5-5.239l15.293-10.582-10.735 6.203a4.267 4.267 0 0 1-4.602-7.176l26.9-19.046-22.325 12.91a4.266 4.266 0 0 1-4.71-7.09l47.546-36.039-42.844 24.75a4.269 4.269 0 0 1-4.719-7.086l48.922-37.289-44.203 25.516a4.269 4.269 0 0 1-5.668-1.477 4.265 4.265 0 0 1 1.145-5.742l5.402-3.672-.855.504a4.27 4.27 0 0 1-5.727-1.426 4.268 4.268 0 0 1 1.18-5.785l11.715-8.047-7.168 4.14a4.267 4.267 0 0 1-4.727-7.074l50.672-38.964-45.945 26.523a4.265 4.265 0 0 1-5.645-1.367 4.266 4.266 0 0 1 .953-5.734l45.38-34.083L11.78 194.47a4.265 4.265 0 0 1-4.726-7.074l49.96-38.278-45.226 26.11a4.267 4.267 0 0 1-4.684-7.11l43.81-32.699-39.134 22.613a4.266 4.266 0 0 1-4.633-7.148l34.762-25.156-30.129 17.39a4.265 4.265 0 0 1-4.54-7.219l9.849-6.734-5.309 3.063a4.263 4.263 0 0 1-5.703-1.399 4.269 4.269 0 0 1 1.094-5.77l29.082-20.718-24.473 14.125a4.267 4.267 0 0 1-5.683-1.442 4.264 4.264 0 0 1 1.117-5.753l17.922-12.434-13.34 7.68a4.267 4.267 0 0 1-4.567-7.192l18.196-12.648-13.653 7.867a4.266 4.266 0 0 1-4.695-7.105L49.645 55.59 11.78 77.469a4.266 4.266 0 0 1-4.633-7.148L30.98 53.081 11.781 64.176a4.272 4.272 0 0 1-5.636-1.367 4.274 4.274 0 0 1 .933-5.727l16.477-12.414-11.774 6.824a4.268 4.268 0 0 1-5.121-6.707L25.355 26.09l-13.539 7.816a4.268 4.268 0 0 1-5.652-6.102l6.316-9.222a4.203 4.203 0 0 1-3.984-2.125 4.267 4.267 0 0 1 1.559-5.82l13.851-8.075a4.26 4.26 0 0 1 5.274.793 4.259 4.259 0 0 1 .382 5.317l-5.757 8.39L49.129 2.47a4.27 4.27 0 0 1 5.45 1.152 4.263 4.263 0 0 1-.329 5.555L35.57 27.848l44.032-25.38A4.267 4.267 0 0 1 85.25 3.84a4.266 4.266 0 0 1-.953 5.73L67.836 21.953 98.762 4.102a4.265 4.265 0 0 1 4.633 7.148L79.602 28.46l27.93-16.124a4.26 4.26 0 0 1 5.66 1.367 4.265 4.265 0 0 1-.973 5.738L69.652 51.297l39.758-22.953a4.266 4.266 0 0 1 4.567 7.191L95.78 48.184l13.656-7.868a4.26 4.26 0 0 1 5.747 1.403A4.26 4.26 0 0 1 114 47.516L96.082 59.949l13.336-7.68a4.27 4.27 0 0 1 5.652 1.426 4.27 4.27 0 0 1-1.043 5.735l-29.09 20.695 24.473-14.117a4.268 4.268 0 0 1 5.754 1.422 4.26 4.26 0 0 1-1.215 5.797l-9.914 6.828 5.375-3.106a4.266 4.266 0 0 1 4.633 7.152l-34.766 25.157 30.133-17.39a4.261 4.261 0 0 1 5.66 1.366 4.262 4.262 0 0 1-.976 5.739l-43.809 32.699 39.125-22.621a4.267 4.267 0 0 1 4.727 7.074l-49.961 38.281 45.226-26.105a4.268 4.268 0 0 1 4.703 7.102l-45.382 34.081L109.41 146a4.264 4.264 0 0 1 5.668 1.328 4.262 4.262 0 0 1-.933 5.746L63.492 192.02l45.918-26.512a4.267 4.267 0 0 1 4.547 7.21l-11.715 8.04 7.168-4.133a4.27 4.27 0 0 1 5.707 1.453 4.273 4.273 0 0 1-1.176 5.77l-5.488 3.726.957-.547a4.272 4.272 0 0 1 5.652 1.348 4.273 4.273 0 0 1-.933 5.738l-48.914 37.305 44.195-25.523a4.27 4.27 0 0 1 5.715 1.324 4.27 4.27 0 0 1-1.004 5.777l-47.547 36.027 42.828-24.746c1.973-1.136 4.493-.523 5.723 1.395s.734 4.465-1.125 5.781l-26.863 19.02 22.273-12.848a4.266 4.266 0 0 1 4.559 7.2L98.605 255.44l10.805-6.23a4.263 4.263 0 0 1 5.633 1.5 4.263 4.263 0 0 1-1.117 5.719l-3.32 2.246a4.267 4.267 0 0 1 3.414 7.68L87.113 285.41l22.305-12.867a4.266 4.266 0 0 1 5.727 1.426 4.272 4.272 0 0 1-1.176 5.785l-14.024 9.668 9.473-5.473a4.273 4.273 0 0 1 5.687 1.403 4.27 4.27 0 0 1-1.07 5.757l-31.027 22.188 26.41-15.242a4.273 4.273 0 0 1 5.687 1.402 4.27 4.27 0 0 1-1.07 5.758l-31.93 22.945 27.305-15.77a4.267 4.267 0 0 1 5.703 1.438 4.266 4.266 0 0 1-1.144 5.766L97.805 330.78l11.605-6.699a4.264 4.264 0 0 1 5.692 1.344 4.266 4.266 0 0 1-.997 5.765l-45.23 33.91 40.5-23.378a4.267 4.267 0 0 1 4.645 7.14l-36.602 26.633 31.957-18.441a4.27 4.27 0 0 1 5.707 1.453 4.264 4.264 0 0 1-1.176 5.765l-6.824 4.676 2.328-1.336a4.266 4.266 0 0 1 4.516 7.219l-3.356 2.27a4.263 4.263 0 0 1 4.852 2.34 4.262 4.262 0 0 1-1.309 5.226l-46.5 35.082 41.813-24.133a4.267 4.267 0 0 1 4.602 7.176l-26.973 19.098 22.347-12.903a4.267 4.267 0 0 1 4.719 7.082l-47.855 36.575 43.136-24.891a4.268 4.268 0 0 1 4.805 7.016L71.84 468.766l37.543-21.684a4.27 4.27 0 0 1 5.613 1.23 4.273 4.273 0 0 1-.695 5.7l-23.254 19.96 18.336-10.581a4.269 4.269 0 0 1 4.867 6.98l-3.203 2.645a4.374 4.374 0 0 1 3.621 1.363 4.268 4.268 0 0 1 .34 5.336l-5.973 8.488a4.27 4.27 0 0 1 4.078 3.188 4.274 4.274 0 0 1-1.996 4.777l-13.773 7.95a4.263 4.263 0 0 1-5.285-.813 4.274 4.274 0 0 1-.34-5.34l5.12-7.313-23.527 13.578c-.64.391-1.375.598-2.125.606zM244.918 504.836a4.264 4.264 0 0 1-3.973-2.723 4.269 4.269 0 0 1 1.098-4.691l25.328-23.11-51.586 29.782a4.267 4.267 0 0 1-4.707-7.102l30.41-22.96-39.066 22.519a4.268 4.268 0 0 1-5.703-1.399 4.268 4.268 0 0 1 1.097-5.77l25.403-18.058-23.696 13.656a4.268 4.268 0 0 1-4.55-7.203l13.656-9.386-9.09 5.238a4.272 4.272 0 0 1-5.691-1.363 4.269 4.269 0 0 1 1.023-5.762l40.84-30.149-36.188 20.942a4.269 4.269 0 0 1-4.687-7.11l43.836-32.714-39.149 22.562a4.27 4.27 0 0 1-5.707-1.453 4.264 4.264 0 0 1 1.176-5.766l5.715-3.882-1.184.671a4.266 4.266 0 0 1-4.71-7.09l48.007-36.456-43.297 24.988a4.267 4.267 0 0 1-4.559-7.203l13.903-9.574-9.344 5.394a4.267 4.267 0 0 1-4.559-7.203l15.266-10.555-10.718 6.184a4.262 4.262 0 0 1-5.703-1.45 4.265 4.265 0 0 1 1.175-5.769l6.024-4.094-1.496.852a4.265 4.265 0 0 1-4.649-7.125l38.399-28.09-33.715 19.465a4.268 4.268 0 0 1-4.617-7.16l30.722-21.957-26.078 15.043a4.266 4.266 0 0 1-4.633-7.148l34.465-24.91-29.867 17.21a4.265 4.265 0 0 1-4.652-7.133l38.343-28.058-33.69 19.437a4.266 4.266 0 0 1-4.728-7.074l50.602-38.895-45.875 26.454a4.261 4.261 0 0 1-5.648-1.477 4.261 4.261 0 0 1 1.117-5.73l6.562-4.473-2.03 1.168a4.267 4.267 0 0 1-4.684-7.11l43.843-32.691-39.187 22.613a4.26 4.26 0 0 1-5.633-1.367 4.265 4.265 0 0 1 .933-5.723l46.934-35.488-42.242 24.38a4.267 4.267 0 0 1-4.574-7.188l19.422-13.524-14.848 8.535a4.275 4.275 0 0 1-5.64-1.347 4.267 4.267 0 0 1 .913-5.727l50.739-39.035-46.004 26.566a4.265 4.265 0 0 1-5.645-1.367 4.27 4.27 0 0 1 .953-5.734l46.43-34.985-41.738 24.082a4.268 4.268 0 0 1-4.512-7.23l3.148-2.113a4.325 4.325 0 0 1-4.316-1.836 4.268 4.268 0 0 1 .961-5.805l49.266-37.629-44.547 25.684a4.26 4.26 0 0 1-5.672-1.367 4.267 4.267 0 0 1 .996-5.75l41.492-30.72-36.816 21.247a4.26 4.26 0 0 1-5.746-1.402 4.26 4.26 0 0 1 1.183-5.797l17.313-12.008-12.75 7.355a4.265 4.265 0 0 1-4.7-7.09l47.293-35.84-42.593 24.583a4.26 4.26 0 0 1-5.7-1.399 4.265 4.265 0 0 1 1.094-5.77L223.63 98.7l-24.117 13.918a4.261 4.261 0 0 1-5.637-1.347 4.264 4.264 0 0 1 .91-5.727l50.348-38.664-45.621 26.473a4.262 4.262 0 0 1-5.727-1.446 4.264 4.264 0 0 1 1.207-5.785l3.84-2.558a4.263 4.263 0 0 1-5.223-1.981 4.266 4.266 0 0 1 1.211-5.453l36.746-27.492-32.054 18.465a4.265 4.265 0 0 1-5.684-1.422 4.265 4.265 0 0 1 1.094-5.754l4.668-3.305h-.078a4.264 4.264 0 0 1-5.586-1.246 4.263 4.263 0 0 1 .68-5.68l19.593-16.71-14.687 8.472a4.263 4.263 0 0 1-5.617-1.23 4.272 4.272 0 0 1 .71-5.707l3.329-2.848a4.337 4.337 0 0 1-3.77-1.426 4.27 4.27 0 0 1-.156-5.41l4.953-6.39a4.27 4.27 0 0 1-1.207-7.86l13.887-8.024a4.268 4.268 0 0 1 5.511 6.31l-3.125 4.026 18.094-10.43a4.267 4.267 0 0 1 4.906 6.93l-2.023 1.707 15.035-8.636a4.267 4.267 0 0 1 4.906 6.93l-19.625 16.75 41.063-23.68a4.267 4.267 0 0 1 4.59 7.18l-4.668 3.292 13.11-7.586a4.266 4.266 0 0 1 4.691 7.105l-36.692 27.47 39.207-22.637a4.27 4.27 0 0 1 5.793 1.402 4.271 4.271 0 0 1-1.262 5.825l-3.496 2.363a4.27 4.27 0 0 1 5.387 1.765 4.274 4.274 0 0 1-1.121 5.559l-50.348 38.672 45.57-26.344a4.268 4.268 0 0 1 5.704 1.399 4.264 4.264 0 0 1-1.098 5.77l-28.773 20.444 24.168-13.918a4.265 4.265 0 0 1 5.632 1.372 4.262 4.262 0 0 1-.933 5.722l-47.29 35.84 42.59-24.578a4.268 4.268 0 0 1 4.563 7.195l-17.254 11.946 12.692-7.364a4.266 4.266 0 0 1 4.676 7.125l-41.489 30.719 36.813-21.246a4.269 4.269 0 0 1 5.652 1.348 4.268 4.268 0 0 1-.934 5.734l-49.265 37.668 44.597-25.746a4.264 4.264 0 0 1 5.758 1.433 4.263 4.263 0 0 1-1.246 5.801l-3.148 2.117a4.366 4.366 0 0 1 4.328 1.844 4.268 4.268 0 0 1-1 5.77l-46.43 34.984 41.738-24.078a4.266 4.266 0 0 1 4.727 7.074l-50.738 39.02 46.011-26.555a4.266 4.266 0 0 1 4.575 7.195l-19.422 13.524 14.847-8.531a4.26 4.26 0 0 1 5.633 1.367 4.264 4.264 0 0 1-.93 5.722l-46.933 35.489 42.238-24.38a4.266 4.266 0 0 1 4.684 7.11L258.05 243.59l39.152-22.598a4.27 4.27 0 0 1 5.707 1.45 4.271 4.271 0 0 1-1.176 5.769l-6.562 4.46 2.031-1.167a4.268 4.268 0 0 1 5.684 1.328 4.26 4.26 0 0 1-.957 5.754l-50.602 38.894 45.875-26.453a4.267 4.267 0 0 1 4.652 7.137l-38.402 28.082 33.715-19.465a4.269 4.269 0 0 1 5.707 1.38 4.271 4.271 0 0 1-1.074 5.773l-34.465 24.918 29.867-17.215a4.268 4.268 0 0 1 4.617 7.152l-30.652 21.93 26.035-15.028a4.267 4.267 0 0 1 4.652 7.137l-38.402 28.156 33.75-19.48a4.266 4.266 0 0 1 5.649 1.48 4.262 4.262 0 0 1-1.118 5.73l-5.972 4.056 1.414-.856a4.275 4.275 0 0 1 5.707 1.434 4.268 4.268 0 0 1-1.149 5.77l-15.3 10.573 10.742-6.195a4.271 4.271 0 0 1 5.707 1.434 4.263 4.263 0 0 1-1.149 5.765l-13.832 9.535 9.274-5.351a4.272 4.272 0 0 1 5.668 1.348 4.265 4.265 0 0 1-.957 5.742l-48.008 36.457 43.273-24.996a4.267 4.267 0 0 1 4.532 7.21l-5.793 3.942 1.261-.723a4.261 4.261 0 0 1 5.66 1.368 4.262 4.262 0 0 1-.976 5.738l-43.8 32.7 39.116-22.58a4.272 4.272 0 0 1 5.692 1.364 4.269 4.269 0 0 1-1.024 5.762l-40.84 30.074 36.172-20.875a4.262 4.262 0 0 1 5.664 1.461 4.261 4.261 0 0 1-1.117 5.742l-13.703 9.446 9.156-5.282a4.266 4.266 0 0 1 5.653 1.426 4.27 4.27 0 0 1-1.043 5.735l-25.364 18.03 20.754-11.948a4.268 4.268 0 0 1 4.703 7.11l-30.406 22.944 25.703-14.828a4.26 4.26 0 0 1 5.516 1.2 4.267 4.267 0 0 1-.508 5.624l-25.336 23.11 20.328-11.727a4.266 4.266 0 0 1 5.043 6.828l-6.34 5.922 1.297-.742a4.27 4.27 0 0 1 5.395 6.453l-3.996 4.707c.785.363 1.437.961 1.87 1.707a4.265 4.265 0 0 1-1.554 5.828l-13.773 7.953a4.264 4.264 0 0 1-5.39-6.449l.476-.582-12.407 7.168a4.27 4.27 0 0 1-5.578-1.156 4.262 4.262 0 0 1 .543-5.668l6.332-5.914-22.05 12.722a4.194 4.194 0 0 1-2.102.606zm0 0" opacity="1" data-original="#9ed26a" class=""></path><g fill="#262626"><path d="M3.223 480.336c6.261 37.062 59.843 23.363 88.941 23.363.145 0 .34-.058.504-.074a12.164 12.164 0 0 0 2.703-.438c27.445-7.421 22.606-29.386 22.606-52.906V125.887c0-31.575 6.828-71.73 0-102.742C111.152-7.863 57.742.762 33.387 2.98 7.504 5.387 4.059 17.746 3.223 40.41c-3.825 103.055 0 206.965 0 310.094 0 41.207-6.895 89.113 0 129.832zM15.578 23.145c8.02-26.98 82.125-20.973 90.043 4.011 6.715 21.215 0 55.672 0 77.653v303.789c0 14.004 10.242 81.593-10.582 89.422-27.98.535-71.45 10.28-79.46-22.008-6.376-25.73 0-61.442 0-87.742V98.156c0-21.777-6.255-53.957 0-75.011zM190.953 480.336c6.274 37.207 59.805 23.52 88.988 23.52.137 0 .317-.063.461-.07.93-.032 1.856-.173 2.754-.419 27.41-7.414 22.555-29.637 22.555-53.086V125.887c0-31.574 6.828-71.68 0-102.742C298.875-8.13 245.535.575 221.078 2.828c-25.926 2.39-29.297 14.906-30.125 37.547-3.789 103.066 0 206.96 0 310.094 0 41.25-6.875 89.136 0 129.867zm12.36-457.191c8.07-26.75 82.132-20.778 90.042 4.011 6.743 21.156 0 55.723 0 77.653v303.789c0 14.148 10.239 81.527-10.683 89.265-27.887.547-71.348 10.242-79.36-21.851-6.41-25.688 0-61.442 0-87.742V98.156c0-21.695-6.316-54.05 0-75.011zm0 0" fill="#262626" opacity="1" data-original="#262626" class=""></path></g></g></svg>