<svg xmlns="http://www.w3.org/2000/svg" version="1.1" xmlns:xlink="http://www.w3.org/1999/xlink" width="512" height="512" x="0" y="0" viewBox="0 0 502 502.339" style="enable-background:new 0 0 512 512" xml:space="preserve" class=""><g><path fill="#46ceac" d="M28.504 502.34a4.272 4.272 0 0 1-4.09-3.082 4.262 4.262 0 0 1 1.813-4.785l53.324-33.828-63.285 36.53a4.268 4.268 0 0 1-5.688-1.55 4.27 4.27 0 0 1 1.293-5.754l179.203-112.008L9.954 482.395a4.267 4.267 0 0 1-4.395-7.313l186.453-116.906L9.953 463.296a4.265 4.265 0 0 1-4.395-7.3l166.247-104.008-161.852 93.45a4.262 4.262 0 0 1-5.73-1.551 4.261 4.261 0 0 1 1.37-5.778l91.083-55.937-86.723 50.074a4.267 4.267 0 0 1-4.379-7.32l124.758-77.551L9.953 416.867a4.265 4.265 0 0 1-4.352-7.328l50.075-30.625-45.723 26.383a4.266 4.266 0 0 1-4.387-7.313l108.563-67.601L9.953 390.527a4.265 4.265 0 0 1-5.687-1.554 4.265 4.265 0 0 1 1.293-5.75l117.101-73.508L9.953 374.78c-2.012 1.094-4.527.403-5.7-1.562s-.585-4.504 1.329-5.758l59.898-37.008-55.535 32.059a4.268 4.268 0 0 1-4.414-7.305l114.348-72.43L9.945 346.238a4.267 4.267 0 0 1-4.438-7.277l128.13-82.606-123.692 71.41a4.269 4.269 0 0 1-4.437-7.28l110.933-71.34-106.496 61.44a4.267 4.267 0 0 1-4.422-7.296l80.801-51.394-76.379 44.132a4.267 4.267 0 0 1-4.422-7.297l71.008-45.226L9.97 281.949a4.269 4.269 0 0 1-4.438-7.281l76.692-49.363-72.278 41.718a4.267 4.267 0 0 1-4.472-7.253l85.718-56.2-81.246 46.934c-2 1.137-4.539.484-5.742-1.473a4.264 4.264 0 0 1 1.27-5.789l72.84-47.746L9.945 234.93a4.269 4.269 0 0 1-4.5-7.246l73.84-49.153-69.34 40.04a4.265 4.265 0 0 1-5.715-1.481 4.27 4.27 0 0 1 1.235-5.774l56.183-37.152-51.703 29.867a4.266 4.266 0 0 1-4.488-7.254l47.727-31.66-43.239 24.945a4.269 4.269 0 0 1-5.78-1.457 4.26 4.26 0 0 1 1.315-5.812l21.114-13.766-16.649 9.582a4.274 4.274 0 0 1-5.726-1.375 4.27 4.27 0 0 1 1.101-5.785l67.848-48.828-63.223 36.531a4.266 4.266 0 0 1-4.53-7.218l30.769-20.93-26.239 15.18a4.269 4.269 0 0 1-5.652-1.446 4.264 4.264 0 0 1 1.07-5.73l34.625-24.297-30.043 17.348a4.277 4.277 0 1 1-4.601-7.207l28.11-19.875-23.509 13.566a4.267 4.267 0 0 1-4.602-7.176L24.06 98.113l-14.114 8.14a4.263 4.263 0 0 1-5.691-1.362 4.265 4.265 0 0 1 1.023-5.762l21.54-15.871-16.872 9.77a4.264 4.264 0 0 1-4.812-7.012l27.305-22.059L9.945 76.945a4.268 4.268 0 0 1-4.941-6.922l22.828-19.796L9.91 60.55a4.267 4.267 0 0 1-4.95-6.895L18.044 42.18l-8.098 4.668a4.267 4.267 0 0 1-5.316-6.54l13.644-15.3-8.328 4.804a4.264 4.264 0 0 1-5.36-.933A4.262 4.262 0 0 1 4.5 23.44l5.188-6.425A4.19 4.19 0 0 1 6.992 15a4.267 4.267 0 0 1 1.551-5.828L23.281.637a4.268 4.268 0 0 1 5.445 6.453l-3.14 3.883L37.07 4.352a4.266 4.266 0 0 1 5.317 6.535L28.734 26.145l22.188-12.801a4.268 4.268 0 0 1 5.555 1.23 4.268 4.268 0 0 1-.606 5.656L42.84 31.707l19.336-11.133a4.27 4.27 0 0 1 5.629 1.207 4.27 4.27 0 0 1-.696 5.711L44.258 47.29l31.246-18.012a4.266 4.266 0 0 1 4.816 7.004L53.004 58.29 88.629 37.75a4.27 4.27 0 0 1 5.691 1.363 4.265 4.265 0 0 1-1.023 5.762l-21.54 15.871 27.7-15.98a4.268 4.268 0 0 1 4.602 7.176L85.363 65.183l24.114-13.926a4.267 4.267 0 0 1 4.601 7.176l-28.11 19.882 34.509-19.925a4.267 4.267 0 0 1 4.59 7.187L90.397 89.863 131.98 65.84a4.268 4.268 0 0 1 4.531 7.223L105.79 93.968l36.813-21.25a4.272 4.272 0 0 1 5.726 1.375 4.269 4.269 0 0 1-1.101 5.785L79.398 128.69 158.5 83.035a4.268 4.268 0 0 1 4.465 7.262L141.75 104.14l26.07-15.055a4.267 4.267 0 0 1 4.496 7.246l-47.703 31.64 54.614-31.511c2-1.16 4.554-.52 5.77 1.445a4.265 4.265 0 0 1-1.278 5.805l-56.168 37.14 63.554-36.695a4.268 4.268 0 0 1 4.5 7.246l-73.832 49.141 82.68-47.734a4.267 4.267 0 0 1 4.48 7.261l-72.824 47.735 81.067-46.778c2-1.136 4.539-.484 5.742 1.473a4.264 4.264 0 0 1-1.27 5.79l-85.812 56.198 94.797-54.722a4.264 4.264 0 0 1 5.8 1.46 4.264 4.264 0 0 1-1.363 5.825l-76.707 49.383 84.48-48.766a4.268 4.268 0 0 1 5.864 1.434 4.264 4.264 0 0 1-1.434 5.859l-70.964 45.176 78.004-45.04a4.268 4.268 0 1 1 4.43 7.297l-80.966 51.493 88.457-51.055a4.267 4.267 0 0 1 4.438 7.277l-110.899 71.305 120.43-69.52a4.268 4.268 0 0 1 5.754 1.485 4.267 4.267 0 0 1-1.309 5.793l-128.117 82.586 138.742-80.094a4.267 4.267 0 0 1 4.41 7.297L185.34 251.406l123.219-71.14a4.268 4.268 0 1 1 4.379 7.328l-59.887 37.004 65.535-37.84a4.275 4.275 0 0 1 4.27-.078 4.27 4.27 0 0 1 .132 7.39l-117.066 73.473 125.508-72.457a4.271 4.271 0 0 1 5.789 1.5 4.27 4.27 0 0 1-1.395 5.816l-108.5 67.559 116.153-67.066a4.27 4.27 0 0 1 4.363 7.332l-50.145 30.675 55.196-31.855a4.267 4.267 0 0 1 4.379 7.313L232.555 293.87l132.906-76.726a4.265 4.265 0 0 1 5.695 1.566 4.265 4.265 0 0 1-1.328 5.758l-91.082 55.926 97.457-56.278a4.265 4.265 0 0 1 5.738 1.52 4.265 4.265 0 0 1-1.336 5.785L214.36 335.434l176.164-101.7a4.266 4.266 0 0 1 4.403 7.305L208.488 357.945l188.903-109.07a4.268 4.268 0 0 1 5.718 1.54 4.27 4.27 0 0 1-1.332 5.772l-179.199 112 30.207-17.433c2-1.086 4.5-.41 5.68 1.539a4.259 4.259 0 0 1-1.258 5.746L76.965 472.387a4.265 4.265 0 0 1-2.133 3.855l-44.23 25.516a4.258 4.258 0 0 1-2.098.582zm0 0" opacity="1" data-original="#46ceac" class=""></path><path fill="#262626" d="M42.867 3.813a4.01 4.01 0 0 0-1.707-.547C5.004-9.285 1.36 22.766 1.36 49.824v381.91c0 22.332-9.958 74.54 27.734 70.34 28.644-3.183 63.504-37.547 86.238-52.265l178.953-115.997c31.692-20.539 73.887-39.25 101.195-65.578 29.68-28.601-19.738-48.683-40.347-62.035zM346.398 290.91 66.445 472.32c-7.418 4.801-20.66 17.817-29.468 19.086-26.454 3.832-21.707-13.133-23.227-27.457-4.633-43.66 0-90.457 0-134.332V125.27c0-8.485-10.98-126.637 19.328-115.204l229.238 148.532c36.813 23.851 81.622 45.226 114.579 74.242 32.015 28.21-8.047 43.527-30.497 58.07zm0 0" opacity="1" data-original="#262626" class=""></path></g></svg>