<svg xmlns="http://www.w3.org/2000/svg" version="1.1" xmlns:xlink="http://www.w3.org/1999/xlink" width="512" height="512" x="0" y="0" viewBox="0 0 60 60" style="enable-background:new 0 0 512 512" xml:space="preserve" class=""><g><path fill="#3f59b7" d="M3.72 59.461a.5.5 0 0 1-.3-.9l1.18-.87-2.207 1.275a.5.5 0 0 1-.534-.845l9.367-6.447-9.888 5.708a.5.5 0 0 1-.516-.857L4.684 54.1l-3.4 1.963a.5.5 0 0 1-.511-.858l1.145-.705-.638.367a.5.5 0 0 1-.511-.858l5.837-3.583L1.28 53.5a.5.5 0 0 1-.516-.856l15.442-9.711L1.28 51.552a.5.5 0 0 1-.513-.858l10.69-6.639L1.28 49.93a.5.5 0 0 1-.511-.859l4.882-3L1.28 48.6a.5.5 0 0 1-.52-.854l17.03-10.964-16.51 9.531a.5.5 0 0 1-.514-.857l8.241-5.137L1.28 44.78a.5.5 0 0 1-.511-.859l.418-.255a.506.506 0 0 1-.587-.218.5.5 0 0 1 .163-.681l7.807-4.888-7.29 4.208a.5.5 0 0 1-.519-.854l11.285-7.21L1.28 40.239a.5.5 0 0 1-.513-.857l2.824-1.755-2.311 1.334a.5.5 0 0 1-.52-.854l10.04-6.45-9.523 5.5a.5.5 0 0 1-.516-.857l8.306-5.32-7.787 4.5a.5.5 0 0 1-.514-.858l.511-.318a.5.5 0 0 1-.513-.858l2.409-1.515-1.893 1.09a.5.5 0 0 1-.524-.85l8.688-5.692-8.164 4.712a.5.5 0 0 1-.519-.853l4.381-2.809-3.862 2.229a.5.5 0 0 1-.526-.85L8.6 23.7l-7.32 4.223a.5.5 0 0 1-.524-.851l5.706-3.756-5.182 2.992a.5.5 0 0 1-.533-.845l7.97-5.474-7.437 4.293a.5.5 0 0 1-.541-.84l8.412-6.006-7.871 4.543a.5.5 0 0 1-.527-.848l2.966-1.979L1.28 20.56a.5.5 0 0 1-.531-.846l3.5-2.379-2.969 1.712a.5.5 0 0 1-.551-.832l6.5-4.9-5.949 3.438a.5.5 0 0 1-.551-.831l5.111-3.865-4.56 2.632a.5.5 0 0 1-.564-.821l4.935-3.993L1.28 12.4a.5.5 0 0 1-.571-.815l3.943-3.314-3.372 1.947A.5.5 0 0 1 .718 9.4l2-1.6-1.438.826a.5.5 0 0 1-.6-.788l2.75-2.717-2.15 1.24A.5.5 0 0 1 .652 5.6l1.93-2.222-1.3.751a.5.5 0 0 1-.625-.764l.658-.744a.5.5 0 0 1-.1-.909L3.13.606a.5.5 0 0 1 .625.764l-.32.362 1.23-.71a.5.5 0 0 1 .628.761L3.364 4 6.3 2.311a.5.5 0 0 1 .6.788L4.148 5.815l3.789-2.187a.5.5 0 0 1 .563.823l-1.995 1.6 2.586-1.497a.5.5 0 0 1 .571.815L5.719 8.682l4.952-2.86a.5.5 0 0 1 .564.822L6.3 10.637l6.031-3.483a.5.5 0 0 1 .552.831l-5.116 3.869 6.06-3.5a.5.5 0 0 1 .551.833l-6.5 4.9 7.614-4.4a.5.5 0 0 1 .532.846l-3.5 2.377 4.06-2.343a.5.5 0 0 1 .527.849L14.147 13.4l3.466-2a.5.5 0 0 1 .541.839l-8.415 6.005 9.543-5.509a.5.5 0 0 1 .533.845l-7.968 5.473 8.9-5.14a.5.5 0 0 1 .524.851l-5.7 3.754 6.348-3.665a.5.5 0 0 1 .526.848l-7.852 5.216 8.656-5a.5.5 0 0 1 .52.853l-4.385 2.812 4.9-2.831a.5.5 0 0 1 .524.85l-8.675 5.685 9.476-5.472a.5.5 0 0 1 .517.856l-2.421 1.53 2.836-1.636a.5.5 0 0 1 .515.857l-.5.312.842-.485a.5.5 0 0 1 .519.854l-8.3 5.314 8.994-5.192a.5.5 0 0 1 .521.853l-10.057 6.456 10.844-6.261a.5.5 0 0 1 .514.858l-2.811 1.746 3.223-1.86a.5.5 0 0 1 .519.853l-11.291 7.213 12.111-6.991a.5.5 0 0 1 .515.856l-7.8 4.885 8.4-4.848a.5.5 0 0 1 .512.86l-.077.046.4-.233a.5.5 0 0 1 .514.857l-8.242 5.137 8.839-5.1a.5.5 0 0 1 .521.853l-17.033 10.96L36.9 26.876a.5.5 0 0 1 .512.858l-4.891 3 5.337-3.081a.5.5 0 0 1 .514.858l-10.685 6.64 10.929-6.309a.5.5 0 0 1 .517.855l-15.449 9.717 14.616-8.44a.5.5 0 0 1 .511.858l-5.852 3.593a.5.5 0 0 1 .49.87L28 39.648a.5.5 0 0 1 .147.91l-6.19 3.884a.5.5 0 0 1 .223.909l-10.019 6.9a.635.635 0 0 1 .426.227.5.5 0 0 1-.123.675l-5.755 4.229a.5.5 0 0 1-.232.564L3.97 59.394a.5.5 0 0 1-.25.067z" opacity="1" data-original="#3f59b7" class=""></path><path fill="#d0e2e8" d="M41 59.291a.5.5 0 0 1-.366-.841l1.7-1.825-2.539 1.466a.5.5 0 0 1-.6-.793l2.48-2.389-2.4 1.383a.5.5 0 0 1-.576-.812l1.89-1.625-1.314.758a.5.5 0 0 1-.567-.819l1.242-1.02-.675.389a.5.5 0 0 1-.589-.8l2.625-2.419-2.031 1.175a.5.5 0 0 1-.562-.823l.808-.648-.246.142a.5.5 0 0 1-.652-.136.5.5 0 0 1 .062-.664l2.653-2.451-2.063 1.19a.5.5 0 0 1-.582-.806l2.258-2-1.676.967a.5.5 0 0 1-.587-.8l2.52-2.3-1.933 1.11a.5.5 0 0 1-.572-.815l1.592-1.336-1.021.589a.5.5 0 0 1-.557-.827l.4-.313a.5.5 0 0 1-.412-.877l1.32-1.09-.752.434a.5.5 0 0 1-.591-.8l2.724-2.538-2.131 1.233a.5.5 0 0 1-.589-.8l2.628-2.423-2.039 1.177a.5.5 0 0 1-.58-.808l2.162-1.9-1.582.913a.5.5 0 0 1-.591-.8l2.727-2.541-2.136 1.23a.5.5 0 0 1-.572-.814l1.657-1.4-1.085.626a.5.5 0 0 1-.586-.8l2.456-2.222-1.87 1.079a.5.5 0 0 1-.653-.136.5.5 0 0 1 .064-.665l2.613-2.4-2.024 1.161a.5.5 0 0 1-.593-.8l2.793-2.623-2.2 1.27a.5.5 0 0 1-.594-.8l2.88-2.736-2.286 1.32a.5.5 0 0 1-.591-.8l2.722-2.536-2.131 1.23a.5.5 0 0 1-.566-.82l1.124-.916-.558.321a.5.5 0 0 1-.56-.824l.615-.488-.055.031a.5.5 0 0 1-.58-.808l2.157-1.9-1.577.91a.5.5 0 0 1-.595-.794l2.941-2.814-2.346 1.364a.5.5 0 0 1-.592-.8l2.763-2.584-2.171 1.253a.5.5 0 0 1-.561-.824l.668-.531-.107.062a.5.5 0 0 1-.571-.815l1.577-1.326-1.006.581a.5.5 0 0 1-.568-.818l1.012-.834-.444.255a.5.5 0 0 1-.618-.771l2.076-2.257-1.446.835a.5.5 0 0 1-.612-.776l.736-.778a.488.488 0 0 1-.234-.209.5.5 0 0 1 .182-.682L41.414.62a.5.5 0 0 1 .612.776l-.248.263L43.07.913a.5.5 0 0 1 .618.772l-2.077 2.257 2.826-1.63a.5.5 0 0 1 .568.818l-1.011.833.725-.418a.5.5 0 0 1 .571.815l-1.576 1.325L44.72 5.1a.5.5 0 0 1 .561.825l-.668.531.107-.056a.5.5 0 0 1 .592.8l-2.765 2.584L44.72 8.53a.5.5 0 0 1 .595.794l-2.94 2.814 2.345-1.354a.5.5 0 0 1 .58.808l-2.157 1.9 1.577-.91a.5.5 0 0 1 .56.824l-.615.489.055-.032a.5.5 0 0 1 .566.821l-1.124.916.558-.322a.5.5 0 0 1 .591.8l-2.722 2.536 2.131-1.23a.5.5 0 0 1 .594.795l-2.88 2.735 2.286-1.319a.5.5 0 0 1 .592.8l-2.792 2.617 2.2-1.27a.5.5 0 0 1 .589.8l-2.615 2.405 2.026-1.169a.5.5 0 0 1 .586.8l-2.456 2.227 1.87-1.079a.5.5 0 0 1 .572.814l-1.653 1.4 1.081-.625a.5.5 0 0 1 .591.8l-2.727 2.542 2.136-1.232a.5.5 0 0 1 .58.808l-2.162 1.9 1.582-.913a.5.5 0 0 1 .589.8l-2.628 2.422 2.039-1.176a.5.5 0 0 1 .591.8L42.587 36.6l2.133-1.23a.5.5 0 0 1 .568.818l-1.32 1.09.752-.433a.5.5 0 0 1 .557.827l-.4.312a.5.5 0 0 1 .416.874L43.7 40.2l1.021-.589a.5.5 0 0 1 .587.8l-2.52 2.3 1.933-1.116a.5.5 0 0 1 .582.806l-2.258 2 1.676-.966a.5.5 0 0 1 .59.8l-2.653 2.452L44.72 45.5a.5.5 0 0 1 .562.823l-.808.648.246-.142a.5.5 0 0 1 .589.8l-2.627 2.42 2.038-1.176a.5.5 0 0 1 .567.819l-1.242 1.02.675-.389a.5.5 0 0 1 .576.812l-1.887 1.623L44.72 52a.5.5 0 0 1 .6.793l-2.478 2.389 1.882-1.087a.5.5 0 0 1 .616.773l-1.7 1.824 1.029-.593a.5.5 0 1 1 .5.865l-3.918 2.263a.489.489 0 0 1-.251.064zM56.336 59.447a.5.5 0 0 1-.363-.843l.264-.28-1.315.759a.5.5 0 0 1-.581-.808l.536-.472-.908.524a.5.5 0 0 1-.6-.788l2.5-2.479-2.582 1.49a.5.5 0 0 1-.559-.825l.472-.372a.5.5 0 0 1-.51-.837l2.63-2.425-2.04 1.178a.5.5 0 0 1-.59-.8L55.358 50l-2.078 1.2a.5.5 0 0 1-.577-.81l1.984-1.721-1.407.812a.5.5 0 0 1-.595-.793l2.924-2.793-2.329 1.342a.5.5 0 0 1-.566-.82l1.138-.928-.572.329a.5.5 0 0 1-.589-.8l2.626-2.418-2.037 1.173a.5.5 0 0 1-.563-.821l.938-.758-.375.216a.5.5 0 0 1-.58-.81l2.06-1.8-1.481.854a.5.5 0 0 1-.593-.8l2.8-2.631-2.2 1.274a.5.5 0 0 1-.568-.818l1.306-1.077-.738.425a.5.5 0 0 1-.583-.806l2.319-2.07-1.736 1a.5.5 0 0 1-.571-.815l1.545-1.295-.974.561a.5.5 0 0 1-.587-.8l2.523-2.302-1.942 1.125a.5.5 0 0 1-.586-.8l2.459-2.225-1.873 1.077a.5.5 0 0 1-.582-.806l2.283-2.032-1.7.981a.5.5 0 0 1-.584-.8l2.4-2.159L53.28 25.9a.5.5 0 0 1-.555-.828l.354-.274a.531.531 0 0 1-.451-.2.5.5 0 0 1 .061-.663l2.724-2.535-2.133 1.231a.5.5 0 0 1-.593-.8l2.8-2.638-2.207 1.28a.5.5 0 0 1-.563-.823l.92-.742-.357.206a.5.5 0 0 1-.564-.821l1.013-.821-.449.258a.5.5 0 0 1-.568-.818l1.3-1.071-.732.422a.5.5 0 0 1-.556-.827l.377-.293a.5.5 0 0 1-.4-.872l2.115-1.854-1.536.883a.5.5 0 0 1-.56-.825l.587-.464-.027.014a.5.5 0 0 1-.576-.811l1.929-1.665-1.353.781a.5.5 0 0 1-.571-.815l1.583-1.331-1.012.583a.5.5 0 0 1-.595-.793l2.727-2.615-2.132 1.235a.5.5 0 0 1-.594-.795L54.4 4.17l-1.118.645a.5.5 0 0 1-.642-.743l1.06-1.343a.491.491 0 0 1-.519-.243.5.5 0 0 1 .182-.682L55.414.62a.5.5 0 0 1 .628.106.5.5 0 0 1 .015.637l-1.013 1.28 2.5-1.443a.5.5 0 0 1 .595.8l-1.718 1.626 2.072-1.195a.5.5 0 0 1 .6.794l-2.73 2.612 2.357-1.36a.5.5 0 0 1 .571.815l-1.583 1.331 1.012-.584a.5.5 0 0 1 .576.812l-1.929 1.665 1.353-.782a.5.5 0 0 1 .56.825l-.587.464.027-.014a.5.5 0 0 1 .579.808l-2.115 1.855 1.536-.887a.5.5 0 0 1 .556.827l-.378.294a.514.514 0 0 1 .483.21.5.5 0 0 1-.093.671l-1.3 1.068.728-.419a.5.5 0 0 1 .564.821l-1.013.821.449-.259a.5.5 0 0 1 .563.823l-.92.742.357-.206a.5.5 0 0 1 .592.8l-2.8 2.637 2.211-1.276a.5.5 0 0 1 .591.8l-2.724 2.538 2.133-1.232a.5.5 0 0 1 .555.829l-.356.276a.5.5 0 0 1 .385.869l-2.4 2.156 1.813-1.046a.5.5 0 0 1 .582.806l-2.283 2.032 1.7-.981a.5.5 0 0 1 .586.8l-2.459 2.225 1.878-1.081a.5.5 0 0 1 .587.8l-2.531 2.307 1.944-1.121a.5.5 0 0 1 .571.816l-1.542 1.293.971-.561a.5.5 0 0 1 .583.806l-2.319 2.07 1.736-1a.5.5 0 0 1 .568.819l-1.306 1.076.738-.425a.5.5 0 0 1 .592.8l-2.8 2.631 2.2-1.274a.5.5 0 0 1 .579.81l-2.062 1.8 1.483-.856a.5.5 0 0 1 .563.822l-.934.754.371-.213a.5.5 0 0 1 .589.8L56.683 42.7l2.037-1.176a.5.5 0 0 1 .566.821l-1.138.927.572-.329a.5.5 0 0 1 .595.794l-2.924 2.793 2.329-1.344a.5.5 0 0 1 .58.814l-1.985 1.721 1.405-.821a.5.5 0 0 1 .59.8l-2.668 2.47 2.078-1.2a.5.5 0 0 1 .589.8l-2.63 2.43 2.041-1.177a.5.5 0 0 1 .558.825l-.476.376a.5.5 0 0 1 .519.826l-2.5 2.478 1.9-1.1a.5.5 0 0 1 .581.807l-.548.483a.5.5 0 0 1 .568.8l-.741.783a.491.491 0 0 1 .238.211.5.5 0 0 1-.182.682l-2.05 1.184a.489.489 0 0 1-.251.069z" opacity="1" data-original="#d0e2e8"></path><g fill="#262626"><path d="M5.913 58.371Q22.1 45.392 38.276 32.393c.072 8.142-.138 16.324.069 24.445a3.216 3.216 0 0 0 3.337 2.438c7.447-.645 2.841-14.311 4.044-19.6V8.503c0-2.16.7-6.032-1.526-7.334-10.2-4.27-4.563 20.63-5.922 26.188L16.348 9.754C11.612 6.138-.647-6.935.275 7.216v38.69C.6 50.281-2.118 62.8 5.913 58.371zM39.724 3.81a2.2 2.2 0 0 1 4.285-.855c.743 10.43.025 21.081.267 31.582-.954 4.918 2.262 22.618-1.882 24.173-3.332-.075-2.67-4.528-2.67-6.733.027-16.054-.038-32.119 0-48.167zM2.082 2.172c2.182-2.632 7.262 4.419 9.607 5.48 38.673 31.584 31.817 15.723-4.41 48.488-6.35 6.495-5.651-1.863-5.554-6.467.342-15.781-.666-31.859.357-47.501zM58.081 1.022c-3.63-1.943-6.6 1.818-5.81 5.325v29.048c1.14 5.1-3.122 24.149 3.464 24.08a3.855 3.855 0 0 0 4-3.849v-47.3c-.005-2.275.65-5.932-1.654-7.304zm.189 54.972a2.364 2.364 0 0 1-2.111 2.521c-3.142-.1-2.429-4.615-2.429-6.695.041-16.015-.066-32.052.008-48.055a2.225 2.225 0 0 1 4.385-.519 20.407 20.407 0 0 1 .147 3.927c-.128 16.271.23 32.558 0 48.821z" fill="#262626" opacity="1" data-original="#262626" class=""></path></g></g></svg>